<svg class="svg-sprite">
  <style type="text/css">
    *{
    pointer-events: fill;
    }
  </style>
  <defs>

    <symbol id="D-arrowup" viewBox="0 0 3000 1500">
      <polygon points="1500,0 2839.285,1350 2689.285,1500 1500,310.714 310.715,1500 160.715,1350 "/>
    </symbol>

    <symbol id="D-arrowdown" viewBox="0 0 3000 1500">
      <polygon points="1500,1500 160.715,150 310.715,0 1500,1189.286 2689.285,0 2839.285,150 "/>
    </symbol>

    <symbol id="D-arrowleft" viewBox="0 0 32 60">
      <polygon points="30.6,0 32,1.4 2.8,30 32,58.6 30.6,60 0,30 "/>
    </symbol>

    <symbol id="D-arrowright" viewBox="0 0 32 60">
      <polygon points="1.4,60 0,58.6 29.2,30 0,1.4 1.4,0 32,30 "/>
    </symbol>

    <symbol id="D-ballet" viewBox="0 0 78 78">
      <g>
        <path d="M54.9,1c10.6,0.7,18.5,7.6,18.5,17.5c0,10-7.5,17.9-17.1,17.9H12.5V1H54.9 M56.5,40.1
          C67.2,40.1,75,48.2,75,58c0,10.3-8.2,19-18.7,19H12.5V40.1H56.5 M55,0H11.5v37.4h44.8c10.2,0,18.1-8.4,18.1-18.9
          C74.5,7.5,65.5,0.7,55,0L55,0z M56.5,39.1h-45V78h44.8C67.5,78,76,68.8,76,58C76,47.3,67.4,39.1,56.5,39.1L56.5,39.1z"/>
      </g>
      <polygon points="31.3,78 2,78 2,77 30.3,77 30.3,1 2,1 2,0 31.3,0 "/>
      <g>
        <g>
          <path d="M48.7,78v-1c2.5,0,4.4-1.8,4.4-6.5V5.1c0-3-2.9-4.1-4.9-4.1l0.6-1c2.9,0.6,5.4,1.8,5.4,5.1v65.4
              C54.1,75.8,51.8,78,48.7,78z"/>
        </g>
      </g>
    </symbol>

    <symbol id="D-calendarview" viewBox="0 0 26 21">
      <path d="M0,0v1v4v1v4v1v4v1v5h5h1h4h1h4h1h4h1h5v-5v-1v-4v-1V6V5V1V0H0z M5,20H1v-4h4V20z M5,15H1v-4h4V15z M5,10H1V6h4V10z M10,20
            H6v-4h4V20z M10,15H6v-4h4V15z M10,10H6V6h4V10z M15,20h-4v-4h4V20z M15,15h-4v-4h4V15z M15,10h-4V6h4V10z M20,20h-4v-4h4V20z
            M20,15h-4v-4h4V15z M20,10h-4V6h4V10z M25,20h-4v-4h4V20z M25,15h-4v-4h4V15z M25,10h-4V6h4V10z M25,5h-4h-1h-4h-1h-4h-1H6H5H1V1
            h24V5z"/>
    </symbol>

    <symbol id="D-close-big" viewBox="0 0 20 20">
      <polygon points="20,0.7 19.3,0 10,9.3 0.7,0 0,0.7 9.3,10 0,19.3 0.7,20 10,10.7 19.3,20 20,19.3 10.7,10 "/>
    </symbol>

    <symbol id="D-close-small" viewBox="0 0 10 10">
      <polygon points="10,0.7 9.3,0 5,4.3 0.7,0 0,0.7 4.3,5 0,9.3 0.7,10 5,5.7 9.3,10 10,9.3 5.7,5 "/>
    </symbol>

    <symbol id="D-crown" viewBox="0 0 41 41">
      <g>
        <path d="M20.2,9.5C19,9.7,18,10.7,18,12c0,1.4,1.1,2.5,2.5,2.5S23,13.4,23,12c0-1.3-1-2.3-2.3-2.5V7.8H23V7.2h-2.2V5h-0.5v2.2H18
                v0.5h2.2V9.5z M22,12c0,0.8-0.7,1.5-1.5,1.5S19,12.8,19,12s0.7-1.5,1.5-1.5S22,11.2,22,12z"/>
        <path d="M10,23v1c2,0,2.2,0.5,3.4,2.4c0.5,0.8,0.8,1.2,1,1.6h1.2c-0.3-0.4-0.9-1.3-1.7-2.6C12.6,23.3,12,23,10,23z"/>
        <path d="M10.1,25.4C8.7,23.3,8,23,6,23v1c2,0,2.1,0.3,3.5,2.2c0.6,0.8,1,1.4,1.3,1.8H12C11.7,27.6,11,26.7,10.1,25.4z"/>
        <path d="M27.1,25.4c-0.8,1.2-1.4,2.2-1.7,2.6h1.2c0.3-0.4,0.5-0.8,1-1.6C28.8,24.5,29,24,31,24v-1C29,23,28.4,23.3,27.1,25.4z"/>
        <path d="M30.9,25.4C30,26.7,29.3,27.6,29,28h1.2c0.3-0.4,0.7-1,1.3-1.8C32.9,24.3,33,24,35,24v-1C33,23,32.3,23.3,30.9,25.4z"/>
        <rect x="11" y="29.8" width="19" height="0.5"/>
        <rect x="11" y="32" width="19" height="1"/>
        <path d="M7.7,21.9c-0.3-0.7-0.7-2-0.7-3.1c0-1.1,0.4-2.1,1.1-2.8c0.7-0.7,1.6-1,2.6-1c0.4,0,0.7,0.1,1,0.2c-1,0.9-1.7,2.3-1.7,4.3
                  c0,0.7,0.2,1.7,0.4,2.3c0.4,0,0.8,0,1.1,0.1c-0.3-0.7-0.5-1.7-0.5-2.4c0-2.7,1.5-4.5,3.8-4.5c1.8,0,2.8,1.1,3.8,2.2
                  c0.3,0.3,0.6,0.7,1,1c-0.3,0.1-0.6,0.2-1,0.2c-1.7,0-2.7-1-3.8-2.1c-0.1-0.1-0.1-0.1-0.2-0.2c-0.6,0-0.9,0.3-1,0.3c0,0,0,0,0,0
                  c0,0,0,0,0,0c0.2,0.2,0.4,0.4,0.6,0.5c1.1,1.1,2.4,2.4,4.5,2.4c0.5,0,1-0.1,1.5-0.3v2.7l0.5,0.4l0.5-0.4v-2.7
                  c0.5,0.2,1,0.3,1.5,0.3c2.1,0,3.4-1.3,4.5-2.4c0.2-0.2,0.4-0.4,0.6-0.5c0,0,0,0,0,0c-0.1-0.1-0.5-0.3-1-0.3
                  c-0.1,0.1-0.1,0.1-0.2,0.2c-1.1,1.1-2.1,2.1-3.8,2.1c-0.4,0-0.7-0.1-1-0.2c0.3-0.3,0.7-0.7,1-1c1-1.1,2-2.2,3.8-2.2
                  c2.3,0,3.8,1.8,3.8,4.5c0,0.7-0.4,1.8-0.6,2.5c0.3,0,0.7-0.1,1-0.1h0.1c0.2-0.7,0.5-1.7,0.5-2.4c0-2-0.7-3.4-1.7-4.3
                  c0.3-0.1,0.6-0.2,1-0.2c1,0,1.9,0.4,2.6,1c0.7,0.7,1.1,1.7,1.1,2.8c0,1.1-0.5,2.5-0.9,3.2c0.3,0,0.7-0.1,1.1-0.1h0
                  c0.3-0.8,0.7-2.1,0.7-3.1c0-1.4-0.5-2.6-1.4-3.5c-0.8-0.8-2-1.3-3.3-1.3c-0.8,0-1.4,0.2-2,0.5C27.7,14.2,27,14,26.3,14
                  c0,0,0,0-0.1,0c-2.2,0-3.4,1.3-4.5,2.5c-0.4,0.4-0.8,0.8-1.2,1.2c-0.4-0.3-0.8-0.7-1.2-1.2C18.2,15.3,17,14,14.8,14c0,0,0,0-0.1,0
                  c-0.7,0-1.4,0.2-2.1,0.5c-0.6-0.3-1.2-0.5-2-0.5c-1.3,0-2.5,0.5-3.3,1.3C6.5,16.2,6,17.4,6,18.8c0,1,0.3,2.3,0.6,3
                  C7,21.8,7.4,21.9,7.7,21.9z"/>
        <path d="M23.3,28c0.6-0.8,1.2-1.8,1.2-2.7c0-1.3-0.9-2.3-2.2-2.3c-0.9,0-1.5,0.6-1.7,0.9c-0.3-0.4-0.9-0.9-1.7-0.9
                    c-1.3,0-2.2,0.9-2.2,2.3c0,0.9,0.6,1.9,1.2,2.7h1.2c-0.6-0.8-1.4-1.9-1.4-2.7c0-0.8,0.5-1.3,1.2-1.3c0.7,0,1.1,0.7,1.1,0.7L20,25
                    H21l0.1-0.3c0,0,0.4-0.7,1.1-0.7c0.7,0,1.2,0.5,1.2,1.3c0,0.8-0.8,1.9-1.4,2.7H23.3z"/>
        <path d="M20.5,0C9.2,0,0,9.2,0,20.5S9.2,41,20.5,41S41,31.8,41,20.5S31.8,0,20.5,0z M20.5,40C9.7,40,1,31.3,1,20.5S9.7,1,20.5,1
                      S40,9.7,40,20.5S31.3,40,20.5,40z"/>
        <polygon points="13.5,16.4 13.5,16.4 13.5,16.4 	"/>
      </g>
    </symbol>

    <symbol id="D-danmarkskort" viewBox="0 0 99 65">
      <polygon points="545.5,30.4 544.8,29.6 551.2,23.6 557.4,23.6 566.6,14.8 570,14.8 573.7,11 578.4,11 573.8,15.8 573.8,23.2
                      571.9,25 571.9,28.8 570.9,28.8 570.9,24.6 572.8,22.8 572.8,15.4 576.1,12 574.1,12 570.4,15.8 567,15.8 557.8,24.6 551.6,24.6 "/>
      <polygon points="565,72.9 550.4,70.7 550.4,62.1 547.5,59.2 544,59.2 544,49 545,49 545,58.2 547.9,58.2 551.4,61.6 551.4,69.9
                        564,71.8 564,57.6 571.2,50.6 571.2,45.2 574.3,45.1 578.7,40.8 578.7,36.5 570.9,36.5 570.9,28.8 571.9,28.8 571.9,35.5
                        579.7,35.5 579.7,41.2 574.7,46.1 572.2,46.2 572.2,51 565,58 "/>
      <path d="M546.2,55.6v-6H544v-16l4.8,4.7l5.7-5.6l0.7,0.7l-6.4,6.3L545,36v12.6h4.3v4L546.2,55.6z M547.2,49.5v3.7l1.1-1.1v-2.6
                          H547.2z"/>
      <path d="M578.9,69.6h-3.6l-8.2-7.9v-2.8l2.4-2.3h11.2l0,5.1L578.9,69.6z M575.7,68.6h2.4l1.6-7.1v-4h-9.8l-1.8,1.7v2L575.7,68.6z"/>
      <path d="M596.7,67.4h-3.8l-4-4.7h-6v-9.5l7.5-4.8V52l1.2,1.2v-5.3l5.1-3.5h5.3v9.5h-2.5l-1.3,1.2l2.4,2.3v5.2h-3.9V67.4z
                            M593.4,66.4h2.4v-4.7h3.9v-3.8l-2.8-2.8l2.3-2.2h2v-7.5h-4l-4.4,3v7.1l-3.2-3.1v-2.2l-5.5,3.5v8h5.4L593.4,66.4z"/>
      <path d="M592.6,75.6v-3.1l-3.5,1.7l-6.2-3.5v-4.3h10.7v6.5l4.8-5.5h-2.2v-1h4.4L592.6,75.6z M583.9,70.1l5.3,2.9l3.4-1.7v-4h-8.7
                              V70.1z"/>
      <path d="M627.1,33.9l-8-2.7v-6.6l8,3V33.9z M620.1,30.5l6,2v-4.1l-6-2.3V30.5z"/>
      <polygon points="623.1,36 614.3,36 614.3,28.3 614.8,28.3 614.8,35.5 623.1,35.5 "/>
      <rect x="598.7" y="63.8" width="4" height="1"/>
      <polygon points="9.5,19.4 8.8,18.6 15.2,12.6 21.4,12.6 30.6,3.8 34,3.8 37.3,0 42,0 37.8,5 37.8,12.2 35.9,14 35.9,17.8 34.9,17.8
                                34.9,13.6 36.8,11.8 36.8,4.6 39.7,1 37.7,1 34.4,4.8 31,4.8 21.8,13.6 15.6,13.6 "/>
      <polygon points="29,61.9 14.4,59.7 14.4,51.1 11.5,48.2 8,48.2 8,38 9,38 9,47.2 11.9,47.2 15.4,50.6 15.4,58.9 28,60.8 28,46
                                  35.2,40.5 35.2,34.2 38.3,34.1 42.7,29.8 42.7,25.5 34.9,25.5 34.9,17.8 35.9,17.8 35.9,24.5 43.7,24.5 43.7,30.2 38.7,35.1
                                  36.2,35.2 36.2,40.9 29,46.4 "/>
      <path d="M10.2,44.6v-6H8v-16l4.8,4.7l5.7-5.6l0.7,0.7l-6.4,6.3L9,25v12.6h4.3v4L10.2,44.6z M11.2,38.5v3.7l1.1-1.1v-2.6H11.2z"/>
      <path d="M42.9,59h-3.6l-8.2-7v-5.1l2.4-1.9H45l0,5.7L42.9,59z M39.7,58h2.4l1.9-7.4V46H33.9l-1.8,1.4v4.2L39.7,58z"/>
      <path d="M60.7,56.4h-3.8l-4-4.4h-6V41.9l7.5-5.1V41l1.2,1.2v-5.8l5.1-3.4h5.3v9.9h-2.5l-1.3,1.2l2.4,2.3v5.2h-3.9V56.4z M57.4,55.4
                                    h2.4v-4.7h3.9v-3.8l-2.8-2.8l2.3-2.2h2V34h-4l-4.4,2.9v7.6l-3.2-3.1v-2.7l-5.5,3.8V51h5.4L57.4,55.4z"/>
      <path d="M56.6,64.6v-3.1l-3.5,1.7l-6.2-3.5v-4.3h10.7v6.5l4.8-5.5h-2.2v-1h4.4L56.6,64.6z M47.9,59.1l5.3,2.9l3.4-1.7v-4h-8.7V59.1z
                                      "/>
      <path d="M91,23l-8-2.7v-6.6l8,3V23z M84,19.6l6,2v-4.1l-6-2.3V19.6z"/>
      <polygon points="88,25 79,25 79,17.3 79.5,17.3 79.5,24.5 88,24.5 "/>
      <rect x="62.7" y="52.8" width="4" height="1"/>
    </symbol>

    <symbol id="D-facebook" viewBox="0 0 30 30">
      <g id="Layer_6">
        <path d="M15,0.9c7.8,0,14.1,6.3,14.1,14.1S22.8,29.1,15,29.1S0.9,22.8,0.9,15S7.2,0.9,15,0.9 M15,0C6.6,0,0,6.6,0,15s6.6,15,15,15
                                          s15-6.6,15-15S23.4,0,15,0L15,0z"/>
        <path d="M18.3,15h-2.1c0,3.6,0,8.1,0,8.1h-3.3c0,0,0-4.5,0-8.1h-1.5v-2.7h1.5v-1.8c0-1.2,0.6-3.3,3.3-3.3h2.4v2.7c0,0-1.5,0-1.8,0
                                            s-0.6,0-0.6,0.9v1.8h2.4L18.3,15z"/>
      </g>
    </symbol>

    <symbol id="D-friday" viewBox="0 0 79 78">
      <g>
        <path d="M78,8.2V77H1V8.2H78 M79,7.2H0V78h79V7.2L79,7.2z"/>
      </g>
      <rect x="19" width="1" height="15"/>
      <line fill="none" stroke="#000000" stroke-miterlimit="10" x1="9.5" y1="32" x2="9.5" y2="33"/>
      <line fill="none" stroke="#000000" stroke-miterlimit="10" x1="19.5" y1="32" x2="19.5" y2="33"/>
      <line fill="none" stroke="#000000" stroke-miterlimit="10" x1="29.5" y1="32" x2="29.5" y2="33"/>
      <line fill="none" stroke="#000000" stroke-miterlimit="10" x1="39.5" y1="32" x2="39.5" y2="33"/>
      <line fill="none" stroke="#000000" stroke-miterlimit="10" x1="49.5" y1="32" x2="49.5" y2="33"/>
      <line fill="none" stroke="#000000" stroke-miterlimit="10" x1="59.5" y1="32" x2="59.5" y2="33"/>
      <line fill="none" stroke="#000000" stroke-miterlimit="10" x1="69.5" y1="32" x2="69.5" y2="33"/>
      <line fill="none" stroke="#000000" stroke-miterlimit="10" x1="9.5" y1="41" x2="9.5" y2="42"/>
      <line fill="none" stroke="#000000" stroke-miterlimit="10" x1="19.5" y1="41" x2="19.5" y2="42"/>
      <line fill="none" stroke="#000000" stroke-miterlimit="10" x1="29.5" y1="41" x2="29.5" y2="42"/>
      <line fill="none" stroke="#000000" stroke-miterlimit="10" x1="39.5" y1="41" x2="39.5" y2="42"/>
      <line fill="none" stroke="#000000" stroke-miterlimit="10" x1="49.5" y1="41" x2="49.5" y2="42"/>
      <line fill="none" stroke="#000000" stroke-miterlimit="10" x1="59.5" y1="41" x2="59.5" y2="42"/>
      <line fill="none" stroke="#000000" stroke-miterlimit="10" x1="69.5" y1="41" x2="69.5" y2="42"/>
      <line fill="none" stroke="#000000" stroke-miterlimit="10" x1="9.5" y1="50" x2="9.5" y2="51"/>
      <line fill="none" stroke="#000000" stroke-miterlimit="10" x1="19.5" y1="50" x2="19.5" y2="51"/>
      <line fill="none" stroke="#000000" stroke-miterlimit="10" x1="29.5" y1="50" x2="29.5" y2="51"/>
      <line fill="none" stroke="#000000" stroke-miterlimit="10" x1="39.5" y1="50" x2="39.5" y2="51"/>
      <line fill="none" stroke="#000000" stroke-miterlimit="10" x1="49.5" y1="50" x2="49.5" y2="51"/>
      <line fill="none" stroke="#000000" stroke-miterlimit="10" x1="59.5" y1="50" x2="59.5" y2="51"/>
      <line fill="none" stroke="#000000" stroke-miterlimit="10" x1="69.5" y1="50" x2="69.5" y2="51"/>
      <line fill="none" stroke="#000000" stroke-miterlimit="10" x1="9.5" y1="59" x2="9.5" y2="60"/>
      <line fill="none" stroke="#000000" stroke-miterlimit="10" x1="19.5" y1="59" x2="19.5" y2="60"/>
      <line fill="none" stroke="#000000" stroke-miterlimit="10" x1="29.5" y1="59" x2="29.5" y2="60"/>
      <line fill="none" stroke="#000000" stroke-miterlimit="10" x1="39.5" y1="59" x2="39.5" y2="60"/>
      <line fill="none" stroke="#000000" stroke-miterlimit="10" x1="49.5" y1="59" x2="49.5" y2="60"/>
      <line fill="none" stroke="#000000" stroke-miterlimit="10" x1="59.5" y1="59" x2="59.5" y2="60"/>
      <line fill="none" stroke="#000000" stroke-miterlimit="10" x1="69.5" y1="59" x2="69.5" y2="60"/>
      <line fill="none" stroke="#000000" stroke-miterlimit="10" x1="9.5" y1="68" x2="9.5" y2="69"/>
      <line fill="none" stroke="#000000" stroke-miterlimit="10" x1="19.5" y1="68" x2="19.5" y2="69"/>
      <line fill="none" stroke="#000000" stroke-miterlimit="10" x1="29.5" y1="68" x2="29.5" y2="69"/>
      <line fill="none" stroke="#000000" stroke-miterlimit="10" x1="39.5" y1="68" x2="39.5" y2="69"/>
      <line fill="none" stroke="#000000" stroke-miterlimit="10" x1="49.5" y1="68" x2="49.5" y2="69"/>
      <line fill="none" stroke="#000000" stroke-miterlimit="10" x1="59.5" y1="68" x2="59.5" y2="69"/>
      <line fill="none" stroke="#000000" stroke-miterlimit="10" x1="69.5" y1="68" x2="69.5" y2="69"/>
      <rect x="59" width="1" height="15"/>
      <polygon points="53.9,28.8 53.3,28.1 49.5,31.9 45.7,28.1 45.1,28.8 48.9,32.6 45.1,36.4 45.7,37 49.5,33.2 53.3,37 53.9,36.4
                                            50.1,32.6 "/>
      <line fill="none" stroke="#000000" stroke-miterlimit="10" x1="0" y1="22.5" x2="79" y2="22.5"/>
    </symbol>

    <symbol id="D-gamlescene-small" viewBox="0 0 40 10">
      <path d="M10,10H9V5c0-2.2-1.8-4-4-4S1,2.8,1,5v5H0V5c0-2.8,2.2-5,5-5s5,2.2,5,5V10z"/>
      <path d="M25,10h-1V5c0-2.2-1.8-4-4-4s-4,1.8-4,4v5h-1V5c0-2.8,2.2-5,5-5s5,2.2,5,5V10z"/>
      <path d="M40,10h-1V5c0-2.2-1.8-4-4-4s-4,1.8-4,4v5h-1V5c0-2.8,2.2-5,5-5s5,2.2,5,5V10z"/>
    </symbol>

    <symbol id="D-gamlescene" viewBox="0 0 99 65">
      <path d="M69.5,20.2h-1v-6c-1.2-1.7-5.3-6.7-13.9-8.6l-10.4,0c-8.5,1.9-12.4,6.9-13.6,8.6v6h-1v-6.3l0.1-0.1c3-4.3,8.2-7.8,14.4-9.2
                                              l10.7,0C61,6,66.4,9.4,69.4,13.8l0.1,0.1V20.2z"/>
      <path d="M35.5,20.2c-1.1,0-2-0.9-2-2c0-1.1,0.9-2,2-2c1.1,0,2,0.9,2,2C37.5,19.3,36.6,20.2,35.5,20.2z M35.5,16.8
                                                c-0.8,0-1.4,0.6-1.4,1.4c0,0.8,0.6,1.4,1.4,1.4s1.4-0.6,1.4-1.4C36.9,17.4,36.3,16.8,35.5,16.8z"/>
      <path d="M42.5,20.2c-1.1,0-2-0.9-2-2c0-1.1,0.9-2,2-2c1.1,0,2,0.9,2,2C44.5,19.3,43.6,20.2,42.5,20.2z M42.5,16.8
                                                  c-0.8,0-1.4,0.6-1.4,1.4c0,0.8,0.6,1.4,1.4,1.4s1.4-0.6,1.4-1.4C43.9,17.4,43.2,16.8,42.5,16.8z"/>
      <path d="M49.5,20.2c-1.1,0-2-0.9-2-2c0-1.1,0.9-2,2-2c1.1,0,2,0.9,2,2C51.5,19.3,50.6,20.2,49.5,20.2z M49.5,16.8
                                                    c-0.8,0-1.4,0.6-1.4,1.4c0,0.8,0.6,1.4,1.4,1.4s1.4-0.6,1.4-1.4C50.9,17.4,50.2,16.8,49.5,16.8z"/>
      <path d="M56.5,20.2c-1.1,0-2-0.9-2-2c0-1.1,0.9-2,2-2c1.1,0,2,0.9,2,2C58.5,19.3,57.6,20.2,56.5,20.2z M56.5,16.8
                                                      c-0.8,0-1.4,0.6-1.4,1.4c0,0.8,0.6,1.4,1.4,1.4c0.8,0,1.4-0.6,1.4-1.4C57.9,17.4,57.3,16.8,56.5,16.8z"/>
      <path d="M63.5,20.2c-1.1,0-2-0.9-2-2c0-1.1,0.9-2,2-2c1.1,0,2,0.9,2,2C65.5,19.3,64.6,20.2,63.5,20.2z M63.5,16.8
                                                        c-0.8,0-1.4,0.6-1.4,1.4c0,0.8,0.6,1.4,1.4,1.4s1.4-0.6,1.4-1.4C64.9,17.4,64.3,16.8,63.5,16.8z"/>
      <path stroke-width="2.6774" stroke-miterlimit="10" d="M49.5,61.9"/>
      <path stroke-width="2.6774" stroke-miterlimit="10" d="M49.5,61.9"/>
      <rect x="72.5" y="23.3" width="0.5" height="37.6"/>
      <rect x="26" y="23.3" width="0.5" height="37.6"/>
      <path stroke-width="2.6774" stroke-miterlimit="10" d="M49.5,61.9"/>
      <path stroke-width="2.6774" stroke-miterlimit="10" d="M49.5,61.9"/>
      <path d="M52.9,45.6h-1v-6.1c0-1.8-1.3-2.5-2.4-2.5s-2.4,0.7-2.4,2.5v6.1h-1v-6.1c0-2.4,1.7-3.5,3.4-3.5s3.4,1.1,3.4,3.5V45.6z"/>
      <path d="M64.7,39.5c0-2.4-1.7-3.5-3.4-3.5c-1.6,0-3.4,1.1-3.4,3.5v6.1h1v-6.1c0-1.8,1.3-2.5,2.4-2.5c1.1,0,2.4,0.7,2.4,2.5v6.1h1
                                                          V39.5z"/>
      <path d="M41,45.6h-1v-6.1c0-1.8-1.3-2.5-2.4-2.5s-2.4,0.7-2.4,2.5v6.1h-1v-6.1c0-2.4,1.7-3.5,3.4-3.5c1.6,0,3.4,1.1,3.4,3.5V45.6z"
                                                            />
      <path d="M21,45.6h-1v-6.1c0-1.8-1.3-2.5-2.4-2.5c-1.1,0-2.4,0.7-2.4,2.5v6.1h-1v-6.1c0-2.4,1.7-3.5,3.4-3.5c1.6,0,3.4,1.1,3.4,3.5
                                                              V45.6z"/>
      <path d="M84.7,46.1h-1v-6.7c0-1.8-1.3-2.5-2.4-2.5S79,37.6,79,39.4v6.7h-1v-6.7c0-2.4,1.7-3.5,3.4-3.5s3.4,1.1,3.4,3.5V46.1z"/>
      <path d="M40.7,53.5c0-2.4-1.7-3.5-3.3-3.5c-1.6,0-3.3,1.1-3.3,3.5v7.3h1v-7.3c0-1.8,1.3-2.5,2.3-2.5s2.3,0.7,2.3,2.5v7.3h1V53.5z"/>
      <rect x="49.2" y="0" width="0.5" height="4.8"/>
      <rect x="14.8" y="39.5" width="5.7" height="0.5"/>
      <rect x="78.5" y="39.5" width="5.7" height="0.5"/>
      <rect x="34.6" y="53.5" width="5.7" height="0.5"/>
      <path d="M52.9,53.5c0-2.4-1.7-3.5-3.3-3.5s-3.3,1.1-3.3,3.5v7.3h1v-7.3c0-1.8,1.3-2.5,2.3-2.5s2.3,0.7,2.3,2.5v7.3h1V53.5z"/>
      <rect x="46.7" y="53.5" width="5.7" height="0.5"/>
      <rect y="64" width="99" height="1"/>
      <rect x="8" y="34.1" width="1" height="26.9"/>
      <rect x="90.1" y="34" width="1" height="26.9"/>
      <rect x="8.8" y="45.4" width="81.7" height="1"/>
      <path d="M64.7,53.5c0-2.4-1.7-3.5-3.3-3.5c-1.6,0-3.3,1.1-3.3,3.5v6.9h1v-6.9c0-1.8,1.3-2.5,2.3-2.5s2.3,0.7,2.3,2.5v6.9h1V53.5z"/>
      <rect x="58.5" y="53.5" width="5.7" height="0.5"/>
      <path d="M87.2,23.2l-14.7-6.8v1.2l12.2,5.6H14.3l12.3-5.5v-1.2l-14.7,6.7H8v9.1h83v-9.1H87.2z M90,31.3H9v-7.1H90V31.3z"/>
      <rect y="60" width="99" height="1"/>
      <path d="M67.9,49.4"/>
    </symbol>

    <symbol id="D-gratis" viewBox="0 0 78 78">
      <g id="Layer_1_1_">
        <g>
          <path d="M46.3,1.6l4,8l0.4,0.8l0.8-0.3L60,7.3l0.7,8.9l0.1,0.9l0.9,0.1l8.9,0.7l-2.8,8.5l-0.3,0.7l0.8,0.4l8,4l-5.9,6.8L69.9,39
                                                                    l0.6,0.7l5.9,6.8l-8,4l-0.8,0.4l0.3,0.8l2.8,8.5l-8.9,0.7l-0.9,0.1l-0.1,0.9l-0.7,8.9l-8.5-2.8l-0.8-0.3l-0.4,0.8l-4,8l-6.8-5.9
                                                                    L39,69.9l-0.7,0.6l-6.8,5.9l-4-8l-0.4-0.8l-0.8,0.3l-8.5,2.8l-0.7-8.9L17,60.9l-0.9-0.1l-8.9-0.7l2.8-8.5l0.3-0.8l-0.8-0.4l-8-4
                                                                    l5.9-6.8L8,39l-0.6-0.7l-5.9-6.8l8-4l0.8-0.4L10,26.3l-2.8-8.5l8.9-0.7L17,17l0.1-0.9l0.7-8.9l8.5,2.8l0.8,0.3l0.4-0.8l4-8
                                                                    l6.8,5.9L39,8l0.7-0.6L46.3,1.6 M46.7,0L39,6.7L31.2,0l-4.6,9.1l-9.7-3.2l-0.7,10.2L5.9,16.9l3.2,9.7L0,31.2L6.7,39L0,46.6
                                                                    l9.2,4.6L5.9,61l10.2,0.8L16.9,72l9.7-3.2l4.6,9.2l7.8-6.7l7.8,6.7l4.6-9.2L61,72l0.8-10.2L72,61l-3.2-9.7l9.2-4.6L71.3,39
                                                                    l6.7-7.8l-9.2-4.6l3.2-9.7l-10.3-0.8L61,5.9l-9.7,3.2L46.7,0L46.7,0z"/>
        </g>
      </g>
    </symbol>

    <symbol id="D-home" viewBox="0 0 10 10">
      <path d="M5,1.3l4,3.2V9H1V4.5L5,1.3 M5,0L0,4v6h10V4L5,0L5,0z"/>
    </symbol>

    <symbol id="D-kgl+" viewBox="0 0 78 78">
      <line fill="none" stroke="#E4003C" stroke-miterlimit="10" x1="39.5" y1="0" x2="39.5" y2="78"/>
      <line fill="none" stroke="#E4003C" stroke-miterlimit="10" x1="1" y1="38.5" x2="77" y2="38.5"/>
    </symbol>

    <symbol id="D-kgl-" viewBox="0 0 78 78">
      <line fill="none" stroke="#E4003C" stroke-miterlimit="10" x1="1" y1="38.5" x2="77" y2="38.5"/>
    </symbol>

    <symbol id="D-koncert" viewBox="0 0 78 78">
      <g>
        <path d="M54.9,1c10.6,0.7,18.5,8.6,18.5,18.5c0,10-7.5,17.9-17.1,17.9H12.5V1H54.9 M56.5,41.1
                                                                    C67.2,41.1,75,48.2,75,58c0,10.3-8.2,19-18.7,19H12.5V41.1H56.5 M55,0H11.5v38.4h44.8c10.2,0,18.1-8.4,18.1-18.9
                                                                    C74.5,8.5,65.5,0.7,55,0L55,0z M56.5,40.1h-45V78h44.8C67.5,78,76,68.8,76,58C76,47.3,67.4,40.1,56.5,40.1L56.5,40.1z"/>
      </g>
      <polygon points="31.3,78 2,78 2,77 30.3,77 30.3,1 2,1 2,0 31.3,0 "/>
      <g>
        <g>
          <path d="M48.7,78v-1c2.5,0,4.4-1.8,4.4-5.5V6.1c0-4-2.9-5.1-4.9-5.1l0.6-1c2.9,0.6,5.4,1.8,5.4,6.1v65.4
                                                                        C54.1,75.8,51.8,78,48.7,78z"/>
        </g>
      </g>
    </symbol>

    <symbol id="D-linkedin" viewBox="0 0 30 30">
      <g id="Layer_8">
        <g>
          <path d="M16.5,13.5v-0.3V13.5z"/>
          <path d="M11.7,21.6H8.4V12h3.3V21.6z M9.9,10.8L9.9,10.8C9,10.8,8.1,9.9,8.1,9c0-0.9,0.6-1.8,1.8-1.8s1.8,0.6,1.8,1.8
                                                                          C11.7,9.9,11.1,10.8,9.9,10.8z M23.1,21.6h-3v-5.1c0-1.2-0.6-2.1-1.5-2.1c-1.2,0-1.8,0.6-1.8,1.2c0,0.3,0,0.6,0,0.9v5.4h-3.3
                                                                          c0,0,0-8.7,0-9.6h3.3v1.5c0.3-0.6,1.2-1.5,3-1.5c2.1,0,3.6,1.5,3.6,4.5v4.8H23.1z"/>
        </g>
        <path d="M15,0.9c7.8,0,14.1,6.3,14.1,14.1S22.8,29.1,15,29.1S0.9,22.8,0.9,15S7.2,0.9,15,0.9 M15,0C6.6,0,0,6.6,0,15s6.6,15,15,15
                                                                          s15-6.6,15-15S23.4,0,15,0L15,0z"/>
      </g>
    </symbol>

    <symbol id="D-listview" viewBox="0 0 25 21">
      <rect width="25" height="1"/>
      <rect y="5" width="25" height="1"/>
      <rect y="10" width="25" height="1"/>
      <rect y="15" width="25" height="1"/>
      <rect y="20" width="25" height="1"/>
    </symbol>

    <symbol id="D-logotype" viewBox="0 0 136 11">
      <g>
        <path d="M70.7,4c0.5,0,0.9,0.4,0.9,0.9s-0.4,0.9-0.9,0.9c-0.5,0-0.9-0.4-0.9-0.9S70.2,4,70.7,4z"/>
      </g>
      <g>
        <path d="M0,0.2h2.9c3.2,0,5.3,2.2,5.3,5.1c0,2.9-2.3,5.1-5.3,5.1H0V0.2z M1.1,1.2v8.2h1.7c2.5,0,4.2-1.8,4.2-4.1
                                                                            c0-2.3-1.7-4.1-4.3-4.1H1.1z"/>
        <path d="M12,0.2h6.2v1h-5.1v3.5h5.1v1h-5.1v3.6h5.1v1H12V0.2z"/>
        <path d="M24.9,1.2h-3.1v-1H29v1h-3.1v9.2h-1.1V1.2z"/>
      </g>
      <g>
        <path d="M40.9,5l-1.9,2.3v3.1h-1.1V0.2h1.1v5.6l4.8-5.6h1.3l-3.5,4.1l3.9,6.1h-1.3L40.9,5z"/>
        <path d="M57.1,2.7c-0.8-1.1-1.8-1.7-3.3-1.7c-2.6,0-4.2,1.9-4.2,4.2s1.8,4.2,4.2,4.2c2.4,0,3.8-1.5,4-3.5h-4.1v-1h5.2v0.3
                                                                              c0,2.8-1.8,5.3-5.2,5.3c-3,0-5.3-2.4-5.3-5.3S50.7,0,53.7,0C55.6,0,57,0.8,58,2L57.1,2.7z"/>
        <path d="M62.6,0.2h1.1v9.2h4.6v1h-5.7V0.2z"/>
      </g>
      <g>
        <path d="M78.2,1.2h-3.1v-1h7.2v1h-3.1v9.2h-1.1V1.2z"/>
        <path d="M86.1,0.2h6.2v1h-5.1v3.5h5.1v1h-5.1v3.6h5.1v1h-6.2V0.2z"/>
        <path d="M99.6,0.2h1.2l3.9,10.2h-1.1l-1-2.6h-4.7l-1,2.6h-1.1L99.6,0.2z M98.3,6.8h3.9l-1.9-5.1L98.3,6.8z"/>
        <path d="M109.6,1.2h-3.1v-1h7.2v1h-3.1v9.2h-1.1V1.2z"/>
        <path d="M117.8,0.2h6.2v1h-5.1v3.5h5.1v1h-5.1v3.6h5.1v1h-6.2V0.2z"/>
        <path d="M128.7,0.2h3.7c2,0,3.5,1.4,3.5,3.2c0,1.4-0.8,2.6-2.2,3l2.3,3.9h-1.3l-2.1-3.7h-2.7v3.7h-1.1V0.2z M129.8,1.2v4.5h2.5
                                                                                c1.5,0,2.5-1.1,2.5-2.3c0-1.3-0.9-2.2-2.5-2.2H129.8z"/>
      </g>
    </symbol>

    <symbol id="D-monday" viewBox="0 0 79 78">
      <g>
        <path d="M78,8.2V77H1V8.2H78 M79,7.2H0V78h79V7.2L79,7.2z"/>
      </g>
      <rect x="19" width="1" height="15"/>
      <line fill="none" stroke="#000000" stroke-miterlimit="10" x1="9.5" y1="32" x2="9.5" y2="33"/>
      <line fill="none" stroke="#000000" stroke-miterlimit="10" x1="19.5" y1="32" x2="19.5" y2="33"/>
      <line fill="none" stroke="#000000" stroke-miterlimit="10" x1="29.5" y1="32" x2="29.5" y2="33"/>
      <line fill="none" stroke="#000000" stroke-miterlimit="10" x1="39.5" y1="32" x2="39.5" y2="33"/>
      <line fill="none" stroke="#000000" stroke-miterlimit="10" x1="49.5" y1="32" x2="49.5" y2="33"/>
      <line fill="none" stroke="#000000" stroke-miterlimit="10" x1="59.5" y1="32" x2="59.5" y2="33"/>
      <line fill="none" stroke="#000000" stroke-miterlimit="10" x1="69.5" y1="32" x2="69.5" y2="33"/>
      <line fill="none" stroke="#000000" stroke-miterlimit="10" x1="9.5" y1="41" x2="9.5" y2="42"/>
      <line fill="none" stroke="#000000" stroke-miterlimit="10" x1="19.5" y1="41" x2="19.5" y2="42"/>
      <line fill="none" stroke="#000000" stroke-miterlimit="10" x1="29.5" y1="41" x2="29.5" y2="42"/>
      <line fill="none" stroke="#000000" stroke-miterlimit="10" x1="39.5" y1="41" x2="39.5" y2="42"/>
      <line fill="none" stroke="#000000" stroke-miterlimit="10" x1="49.5" y1="41" x2="49.5" y2="42"/>
      <line fill="none" stroke="#000000" stroke-miterlimit="10" x1="59.5" y1="41" x2="59.5" y2="42"/>
      <line fill="none" stroke="#000000" stroke-miterlimit="10" x1="69.5" y1="41" x2="69.5" y2="42"/>
      <line fill="none" stroke="#000000" stroke-miterlimit="10" x1="9.5" y1="50" x2="9.5" y2="51"/>
      <line fill="none" stroke="#000000" stroke-miterlimit="10" x1="19.5" y1="50" x2="19.5" y2="51"/>
      <line fill="none" stroke="#000000" stroke-miterlimit="10" x1="29.5" y1="50" x2="29.5" y2="51"/>
      <line fill="none" stroke="#000000" stroke-miterlimit="10" x1="39.5" y1="50" x2="39.5" y2="51"/>
      <line fill="none" stroke="#000000" stroke-miterlimit="10" x1="49.5" y1="50" x2="49.5" y2="51"/>
      <line fill="none" stroke="#000000" stroke-miterlimit="10" x1="59.5" y1="50" x2="59.5" y2="51"/>
      <line fill="none" stroke="#000000" stroke-miterlimit="10" x1="69.5" y1="50" x2="69.5" y2="51"/>
      <line fill="none" stroke="#000000" stroke-miterlimit="10" x1="9.5" y1="59" x2="9.5" y2="60"/>
      <line fill="none" stroke="#000000" stroke-miterlimit="10" x1="19.5" y1="59" x2="19.5" y2="60"/>
      <line fill="none" stroke="#000000" stroke-miterlimit="10" x1="29.5" y1="59" x2="29.5" y2="60"/>
      <line fill="none" stroke="#000000" stroke-miterlimit="10" x1="39.5" y1="59" x2="39.5" y2="60"/>
      <line fill="none" stroke="#000000" stroke-miterlimit="10" x1="49.5" y1="59" x2="49.5" y2="60"/>
      <line fill="none" stroke="#000000" stroke-miterlimit="10" x1="59.5" y1="59" x2="59.5" y2="60"/>
      <line fill="none" stroke="#000000" stroke-miterlimit="10" x1="69.5" y1="59" x2="69.5" y2="60"/>
      <line fill="none" stroke="#000000" stroke-miterlimit="10" x1="9.5" y1="68" x2="9.5" y2="69"/>
      <line fill="none" stroke="#000000" stroke-miterlimit="10" x1="19.5" y1="68" x2="19.5" y2="69"/>
      <line fill="none" stroke="#000000" stroke-miterlimit="10" x1="29.5" y1="68" x2="29.5" y2="69"/>
      <line fill="none" stroke="#000000" stroke-miterlimit="10" x1="39.5" y1="68" x2="39.5" y2="69"/>
      <line fill="none" stroke="#000000" stroke-miterlimit="10" x1="49.5" y1="68" x2="49.5" y2="69"/>
      <line fill="none" stroke="#000000" stroke-miterlimit="10" x1="59.5" y1="68" x2="59.5" y2="69"/>
      <line fill="none" stroke="#000000" stroke-miterlimit="10" x1="69.5" y1="68" x2="69.5" y2="69"/>
      <rect x="59" width="1" height="15"/>
      <polygon points="14,55.7 13.4,55 9.6,58.8 5.8,55 5.1,55.7 8.9,59.5 5.1,63.3 5.7,63.9 9.6,60.1 13.4,63.9 14,63.3 10.2,59.5 "/>
      <line fill="none" stroke="#000000" stroke-miterlimit="10" x1="0" y1="22.5" x2="79" y2="22.5"/>
    </symbol>

    <symbol id="D-opera" viewBox="0 0 78 78">
      <g>
        <g>
          <path d="M44.6,77.6v-1c2.7,0,4.9-2.4,4.9-5.6V6.2c0-3.4-3.5-4.5-5-4.8l0.2-1c3.6,0.8,5.8,2.9,5.8,5.8V71
                                                                                    C50.5,74.7,48,77.6,44.6,77.6z"/>
          <path d="M33.4,77.6c-3.4,0-5.9-2.7-5.9-6.6l0.3-64.8c0-3.1,2.1-5.2,5.8-5.9l0.2,1c-2.3,0.4-5,1.7-5,4.9L28.5,71
                                                                                      c0.2,3.5,2.1,5.6,4.9,5.6V77.6z"/>
          <path d="M39,78C17.5,78,0,60.5,0,39S17.5,0,39,0c21.5,0,39,17.5,39,39S60.5,78,39,78z M39,1C18,1,1,18,1,39
                                                                                        s17,38,38,38c21,0,38-17,38-38S60,1,39,1z"/>
        </g>
      </g>
    </symbol>

    <symbol id="D-operaen-small" viewBox="0 0 40 10">
      <g>
        <path d="M35,10c-2.8,0-5-2.2-5-5s2.2-5,5-5s5,2.2,5,5S37.8,10,35,10z M35,1c-2.2,0-4,1.8-4,4s1.8,4,4,4s4-1.8,4-4S37.2,1,35,1z"/>
        <path d="M20,10c-2.8,0-5-2.2-5-5s2.2-5,5-5c2.8,0,5,2.2,5,5S22.7,10,20,10z M20,1c-2.2,0-4,1.8-4,4s1.8,4,4,4s4-1.8,4-4S22.2,1,20,1z"/>
        <path d="M5,10c-2.8,0-5-2.2-5-5s2.2-5,5-5s5,2.2,5,5S7.8,10,5,10z M5,1C2.8,1,1,2.8,1,5s1.8,4,4,4s4-1.8,4-4S7.2,1,5,1z"/>
      </g>
    </symbol>

    <symbol id="D-operaen" viewBox="0 0 99 65">
      <polygon points="69,20 68,20 68,11 32,11 32,20 31,20 31,10 69,10 "/>
      <rect x="0" y="22" width="99" height="1"/>
      <path d="M38.3,47c-1.9,0-3.5-1.6-3.5-3.5s1.6-3.5,3.5-3.5s3.5,1.6,3.5,3.5S40.2,47,38.3,47z M38.3,41c-1.4,0-2.5,1.1-2.5,2.5
                                                                                        s1.1,2.5,2.5,2.5s2.5-1.1,2.5-2.5S39.6,41,38.3,41z"/>
      <path d="M49.5,47c-1.9,0-3.5-1.6-3.5-3.5s1.6-3.5,3.5-3.5s3.5,1.6,3.5,3.5S51.4,47,49.5,47z M49.5,41c-1.4,0-2.5,1.1-2.5,2.5
                                                                                          s1.1,2.5,2.5,2.5s2.5-1.1,2.5-2.5S50.9,41,49.5,41z"/>
      <path d="M60.5,47c-1.9,0-3.5-1.6-3.5-3.5s1.6-3.5,3.5-3.5s3.5,1.6,3.5,3.5S62.4,47,60.5,47z M60.5,41c-1.4,0-2.5,1.1-2.5,2.5
                                                                                            s1.1,2.5,2.5,2.5s2.5-1.1,2.5-2.5S61.9,41,60.5,41z"/>
      <polyline points="49.6,54.9 49.6,32.3 49.1,32.3 49.1,54.9 38.5,54.9 38.5,32.3 38,32.3 38,54.9 27.5,54.9 27.5,32.3 27,32.3
                                                                                              27,54.9 9,55 9,38 17,38 17,37 8,37 8,56 91,56 91,37 83,37 83,38 90,38 90,55 "/>
      <polyline points="61,54.9 61,32.3 60.5,32.3 60.5,54.9 50.3,54.9 "/>
      <polyline points="89.9,54.9 72,54.9 72,32.3 71.5,32.3 71.5,54.9 62,54.9 "/>
      <rect y="59" width="99" height="1"/>
      <g>
        <polygon points="17,33.9 0,23 0,24.2 17,35 	"/>
      </g>
      <g>
        <polygon points="83,33.8 99,23 99,24.2 83,35 	"/>
      </g>
      <path d="M73.5,65c-1.5,0-2.8-0.6-3.9-1.7c-1.1,1.1-2.4,1.7-3.9,1.7l0,0c-1.5,0-2.8-0.6-3.9-1.7c-1.1,1.1-2.4,1.7-3.9,1.7
                                                                                                c-1.5,0-2.8-0.6-3.9-1.7c-1.1,1.1-2.4,1.7-3.9,1.7c-1.5,0-2.8-0.6-3.9-1.7c-1.1,1.1-2.4,1.7-3.9,1.7l0,0c-1.5,0-2.8-0.6-3.9-1.7
                                                                                                C37.4,64.4,36,65,34.5,65c-1.5,0-2.8-0.6-3.9-1.7c-1.1,1.1-2.4,1.7-3.9,1.7c-1.5,0-3-0.7-4.1-1.9l-0.2-0.2l0.4-0.3l0.2,0.2
                                                                                                c1,1.1,2.3,1.7,3.7,1.7c1.4,0,2.7-0.6,3.7-1.7l0.2-0.2l0.2,0.2c1,1.1,2.3,1.7,3.7,1.7c1.4,0,2.7-0.6,3.7-1.7l0.2-0.2l0.2,0.2
                                                                                                c1,1.1,2.3,1.7,3.7,1.7l0,0c1.4,0,2.7-0.6,3.7-1.7l0.2-0.2l0.2,0.2c1,1.1,2.3,1.7,3.7,1.7c1.4,0,2.7-0.6,3.7-1.7l0.2-0.2l0.2,0.2
                                                                                                c1,1.1,2.3,1.7,3.7,1.7c1.4,0,2.7-0.6,3.7-1.7l0.2-0.2l0.2,0.2c1,1.1,2.3,1.7,3.7,1.7l0,0c1.4,0,2.7-0.6,3.7-1.7l0.2-0.2l0.2,0.2
                                                                                                c1,1.1,2.3,1.7,3.7,1.7s2.7-0.6,3.7-1.7l0.2-0.2l0.4,0.3l-0.2,0.2C76.5,64.3,75,65,73.5,65z"/>
      <g>
        <path fill="none" d="M23.3,52.5c0.2,0.6,0.3,0.4,0.3,0.4l52.8-1c0,0,0.1,1.2,0.3,0.6H23.3z"/>
        <path d="M76.9,52H23.1c0.1,0.2,0.1,0.3,0.2,0.5h53.5C76.8,52.3,76.9,52.2,76.9,52z"/>
        <path d="M79.3,43H20.7c0,0.2,0.1,0.3,0.1,0.5h58.4C79.3,43.3,79.3,43.2,79.3,43z"/>
        <path d="M79.7,37.1H20.3c0,0.2,0,0.3-0.1,0.5h59.6C79.8,37.4,79.8,37.2,79.7,37.1z"/>
        <path d="M78.7,34H21.4c-0.1,0.2-0.2,0.3-0.3,0.5H79C78.9,34.3,78.8,34.2,78.7,34z"/>
        <path d="M79.8,40H20.3c0,0.2,0,0.3,0.1,0.5h59.4C79.8,40.3,79.8,40.2,79.8,40z"/>
        <path d="M78.7,46.1H21.4c0.1,0.2,0.1,0.3,0.1,0.5h57C78.6,46.4,78.6,46.2,78.7,46.1z"/>
        <path d="M77.8,49.1H22.2c0.1,0.2,0.1,0.3,0.2,0.5h55.3C77.8,49.4,77.8,49.2,77.8,49.1z"/>
      </g>

    </symbol>

    <symbol id="D-saturday" viewBox="0 0 79 78">
      <g>
        <path d="M78,8.2V77H1V8.2H78 M79,7.2H0V78h79V7.2L79,7.2z"/>
      </g>
      <rect x="19" width="1" height="15"/>
      <line fill="none" stroke="#000000" stroke-miterlimit="10" x1="9.5" y1="32" x2="9.5" y2="33"/>
      <line fill="none" stroke="#000000" stroke-miterlimit="10" x1="19.5" y1="32" x2="19.5" y2="33"/>
      <line fill="none" stroke="#000000" stroke-miterlimit="10" x1="29.5" y1="32" x2="29.5" y2="33"/>
      <line fill="none" stroke="#000000" stroke-miterlimit="10" x1="39.5" y1="32" x2="39.5" y2="33"/>
      <line fill="none" stroke="#000000" stroke-miterlimit="10" x1="49.5" y1="32" x2="49.5" y2="33"/>
      <line fill="none" stroke="#000000" stroke-miterlimit="10" x1="59.5" y1="32" x2="59.5" y2="33"/>
      <line fill="none" stroke="#000000" stroke-miterlimit="10" x1="69.5" y1="32" x2="69.5" y2="33"/>
      <line fill="none" stroke="#000000" stroke-miterlimit="10" x1="9.5" y1="41" x2="9.5" y2="42"/>
      <line fill="none" stroke="#000000" stroke-miterlimit="10" x1="19.5" y1="41" x2="19.5" y2="42"/>
      <line fill="none" stroke="#000000" stroke-miterlimit="10" x1="29.5" y1="41" x2="29.5" y2="42"/>
      <line fill="none" stroke="#000000" stroke-miterlimit="10" x1="39.5" y1="41" x2="39.5" y2="42"/>
      <line fill="none" stroke="#000000" stroke-miterlimit="10" x1="49.5" y1="41" x2="49.5" y2="42"/>
      <line fill="none" stroke="#000000" stroke-miterlimit="10" x1="59.5" y1="41" x2="59.5" y2="42"/>
      <line fill="none" stroke="#000000" stroke-miterlimit="10" x1="69.5" y1="41" x2="69.5" y2="42"/>
      <line fill="none" stroke="#000000" stroke-miterlimit="10" x1="9.5" y1="50" x2="9.5" y2="51"/>
      <line fill="none" stroke="#000000" stroke-miterlimit="10" x1="19.5" y1="50" x2="19.5" y2="51"/>
      <line fill="none" stroke="#000000" stroke-miterlimit="10" x1="29.5" y1="50" x2="29.5" y2="51"/>
      <line fill="none" stroke="#000000" stroke-miterlimit="10" x1="39.5" y1="50" x2="39.5" y2="51"/>
      <line fill="none" stroke="#000000" stroke-miterlimit="10" x1="49.5" y1="50" x2="49.5" y2="51"/>
      <line fill="none" stroke="#000000" stroke-miterlimit="10" x1="59.5" y1="50" x2="59.5" y2="51"/>
      <line fill="none" stroke="#000000" stroke-miterlimit="10" x1="69.5" y1="50" x2="69.5" y2="51"/>
      <line fill="none" stroke="#000000" stroke-miterlimit="10" x1="9.5" y1="59" x2="9.5" y2="60"/>
      <line fill="none" stroke="#000000" stroke-miterlimit="10" x1="19.5" y1="59" x2="19.5" y2="60"/>
      <line fill="none" stroke="#000000" stroke-miterlimit="10" x1="29.5" y1="59" x2="29.5" y2="60"/>
      <line fill="none" stroke="#000000" stroke-miterlimit="10" x1="39.5" y1="59" x2="39.5" y2="60"/>
      <line fill="none" stroke="#000000" stroke-miterlimit="10" x1="49.5" y1="59" x2="49.5" y2="60"/>
      <line fill="none" stroke="#000000" stroke-miterlimit="10" x1="59.5" y1="59" x2="59.5" y2="60"/>
      <line fill="none" stroke="#000000" stroke-miterlimit="10" x1="69.5" y1="59" x2="69.5" y2="60"/>
      <line fill="none" stroke="#000000" stroke-miterlimit="10" x1="9.5" y1="68" x2="9.5" y2="69"/>
      <line fill="none" stroke="#000000" stroke-miterlimit="10" x1="19.5" y1="68" x2="19.5" y2="69"/>
      <line fill="none" stroke="#000000" stroke-miterlimit="10" x1="29.5" y1="68" x2="29.5" y2="69"/>
      <line fill="none" stroke="#000000" stroke-miterlimit="10" x1="39.5" y1="68" x2="39.5" y2="69"/>
      <line fill="none" stroke="#000000" stroke-miterlimit="10" x1="49.5" y1="68" x2="49.5" y2="69"/>
      <line fill="none" stroke="#000000" stroke-miterlimit="10" x1="59.5" y1="68" x2="59.5" y2="69"/>
      <line fill="none" stroke="#000000" stroke-miterlimit="10" x1="69.5" y1="68" x2="69.5" y2="69"/>
      <rect x="59" width="1" height="15"/>
      <polygon points="63.9,37.8 63.3,37.1 59.5,40.9 55.7,37.1 55.1,37.8 58.9,41.6 55.1,45.4 55.7,46 59.5,42.2 63.3,46 63.9,45.4
                                                                                                  60.1,41.6 "/>
      <line fill="none" stroke="#000000" stroke-miterlimit="10" x1="0" y1="22.5" x2="79" y2="22.5"/>
    </symbol>

    <symbol id="D-search" viewBox="0 0 10 10">
      <path d="M10,9.3L6.9,6.2c0.5-0.7,0.8-1.5,0.8-2.4C7.8,1.7,6,0,3.9,0S0,1.7,0,3.9s1.7,3.9,3.9,3.9c0.9,0,1.7-0.3,2.4-0.8L9.3,10
                                                                                                    L10,9.3z M1,3.9C1,2.3,2.2,1,3.9,1c1.6,0,2.9,1.3,2.9,2.9S5.4,6.8,3.9,6.8S1,5.4,1,3.9z"/>
    </symbol>

    <symbol id="D-skuespil" viewBox="0 0 78 78">
      <g>
        <g>
          <path fill="none" stroke="#000000" stroke-miterlimit="10" d="M108.6,99.5"/>
          <path fill="none" stroke="#000000" stroke-miterlimit="10" d="M26.1,99.5"/>
          <path d="M39.1,78c-9.8,0-17.5-2.7-22.7-8.2c-7.6-7.9-7.3-18.5-7.3-19l1,0c0,0.1-0.3,10.7,7,18.2c5,5.2,12.4,7.9,22,7.9v0
                                                                                                          c0.2,0,0.5,0,0.7,0c6.8-0.4,12.1-6,12.1-10.6c0-5.1-4.6-7.1-13-10.9L37,54.6C13.9,44,9.5,36.6,9.5,25.5C9.5,9.6,20.2,0.1,38.2,0.1
                                                                                                          C38.7,0.1,50.6-1.3,58.9,6c4.9,4.4,7.4,10.9,7.4,19.4h-1c0-8.2-2.4-14.5-7.1-18.7c-7.9-7-19.8-5.6-19.9-5.6c0,0,0,0-0.1,0v0
                                                                                                          c-0.1,0-0.2,0-0.3,0c-6.4,0.2-10.5,4.2-10.5,10.3c0,5,5.5,7.6,15.4,12.2c1.2,0.6,2.5,1.2,3.9,1.8c15.4,7.4,25,14,25,27.4
                                                                                                          c0,16-11.3,25-31.9,25.2C39.6,78,39.3,78,39.1,78z M32.1,1.5c-13.8,1.9-21.6,10.4-21.6,24c0,13.9,9.1,20,27,28.2l1.9,0.8
                                                                                                          c8.8,3.9,13.6,6.1,13.6,11.8c0,3.8-3.3,8.2-8,10.4c16.7-1.5,25.8-9.9,25.8-23.9c0-12.9-9.3-19.3-24.4-26.5
                                                                                                          c-1.4-0.6-2.6-1.2-3.9-1.8c-10.3-4.8-16-7.4-16-13.1C26.5,6.9,28.6,3.4,32.1,1.5z"/>
          <rect x="65.3" y="0.6" width="1" height="24.8"/>
          <rect x="9.1" y="50.9" width="1" height="26.6"/>
        </g>
      </g>
    </symbol>

    <symbol id="D-skuespilhuset-small" viewBox="0 0 40 10">
      <polygon points="32.7,0 26.7,9 20.7,0 19.3,0 13.3,9 7.3,0 6,0 0,10 1.3,10 6.7,1 12.7,10 14,10 20,1 26,10 27.3,10 33.3,1 38.7,10
                                                                                                        40,10 34,0 "/>
    </symbol>

    <symbol id="D-skuespilhuset" viewBox="0 0 99 65">
      <rect x="61" y="53" width="8" height="0.5"/>
      <path d="M67.9,52.7"/>
      <rect x="44" y="56.5" width="55" height="1"/>
      <rect x="28" y="36.5" width="0.5" height="10"/>
      <rect x="13" y="41.5" width="7" height="1"/>
      <rect x="6" y="44.5" width="6.9" height="1"/>
      <g>
        <rect x="49" y="43.5" width="6.8" height="1"/>
      </g>
      <polygon points="56,23.5 55,23.5 55,9.5 29,9.5 29,23.5 28,23.5 28,8.5 56,8.5 "/>
      <path d="M94.8,65C94.8,65,94.8,65,94.8,65c-1.4,0-2.8-0.6-3.8-1.7c-1,1.1-2.4,1.7-3.8,1.7c-1.4,0-2.8-0.6-3.8-1.7
                                                                                                          c-1,1.1-2.4,1.7-3.8,1.7c-1.4,0-2.8-0.6-3.8-1.7c-1,1.1-2.4,1.7-3.8,1.7h0c-1.4,0-2.8-0.6-3.8-1.7c-1,1.1-2.4,1.7-3.8,1.7
                                                                                                          c-1.4,0-2.8-0.6-3.8-1.7c-1,1.1-2.4,1.7-3.8,1.7s-2.8-0.6-3.8-1.7c-1,1.1-2.4,1.7-3.8,1.7c-1.5,0-2.9-0.7-4-1.9L45,62.9l0.4-0.3
                                                                                                          l0.2,0.2c1,1.1,2.3,1.8,3.6,1.8c1.4,0,2.7-0.6,3.6-1.8l0.2-0.2l0.2,0.2c1,1.1,2.3,1.8,3.6,1.8s2.7-0.6,3.6-1.8l0.2-0.2l0.2,0.2
                                                                                                          c1,1.1,2.3,1.8,3.6,1.8c1.4,0,2.7-0.6,3.6-1.8l0.2-0.2l0.2,0.2c1,1.1,2.3,1.8,3.6,1.8h0c1.4,0,2.7-0.6,3.6-1.8l0.2-0.2l0.2,0.2
                                                                                                          c1,1.1,2.3,1.8,3.6,1.8c1.4,0,2.7-0.6,3.6-1.8l0.2-0.2l0.2,0.2c1,1.1,2.3,1.8,3.6,1.8c1.4,0,2.7-0.6,3.6-1.8l0.2-0.2l0.2,0.2
                                                                                                          c1,1.1,2.3,1.8,3.6,1.8h0c1.4,0,2.7-0.6,3.6-1.8l0.2-0.2l0.4,0.3l-0.2,0.2C97.8,64.3,96.4,65,94.8,65z"/>
      <rect x="61" y="44.5" width="8" height="0.5"/>
      <rect x="78" y="44.5" width="8" height="0.5"/>
      <rect x="61" y="40.5" width="8" height="0.5"/>
      <rect x="69.5" y="40.5" width="8" height="0.5"/>
      <rect x="78" y="40.5" width="8" height="0.5"/>
      <rect x="61" y="49" width="8" height="0.5"/>
      <polygon points="77,53.5 77,45.5 70,45.5 70,53.5 69,53.5 69,44.5 78,44.5 78,53.5 "/>
      <rect x="78" y="49" width="8" height="0.5"/>
      <polygon points="61,53.5 44,53.5 44,47.5 29,47.5 29,53.5 0,53.5 0,36.5 1,36.5 1,52.5 28,52.5 28,46.5 45,46.5 45,52.5 60,52.5
                                                                                                            60,37.5 61,37.5 "/>
      <rect x="78" y="53" width="8" height="0.5"/>
      <rect x="78" y="37" width="8" height="0.5"/>
      <rect x="60" y="37" width="18" height="0.5"/>
      <rect x="77.5" y="37.5" width="0.5" height="7"/>
      <rect x="69" y="37.5" width="0.5" height="7"/>
      <g>
        <polygon points="96,26.5 94.8,26.5 90.8,33.5 86.8,26.5 84.5,26.5 80.5,33.5 76.5,26.5 74.2,26.5 70.2,33.5 66.1,26.5 63.8,26.5
                                                                                                                59.8,33.5 55.8,26.5 53.5,26.5 49.5,33.5 45.5,26.5 43.2,26.5 39.2,33.5 35.2,26.5 32.9,26.5 28.8,33.5 24.8,26.5 22.5,26.5
                                                                                                                18.5,33.5 14.5,26.5 12.2,26.5 8.2,33.5 4.2,26.5 3,26.5 7,33.5 9.3,33.5 13.3,26.5 17.4,33.5 19.6,33.5 23.7,26.5 27.7,33.5
                                                                                                                30,33.5 34,26.5 38,33.5 40.3,33.5 44.3,26.5 48.4,33.5 50.6,33.5 54.7,26.5 58.7,33.5 61,33.5 65,26.5 69,33.5 71.3,33.5
                                                                                                                75.3,26.5 79.4,33.5 81.6,33.5 85.7,26.5 89.7,33.5 92,33.5 	"/>
      </g>
      <g>
        <g>
          <path d="M98,26.5v7H1v-7H98 M99,25.5H0v9h99V25.5L99,25.5z"/>
        </g>
      </g>
    </symbol>

    <symbol id="D-sunday" viewBox="0 0 79 78">
      <g>
        <path d="M78,8.2V77H1V8.2H78 M79,7.2H0V78h79V7.2L79,7.2z"/>
      </g>
      <rect x="19" width="1" height="15"/>
      <line fill="none" stroke="#000000" stroke-miterlimit="10" x1="9.5" y1="32" x2="9.5" y2="33"/>
      <line fill="none" stroke="#000000" stroke-miterlimit="10" x1="19.5" y1="32" x2="19.5" y2="33"/>
      <line fill="none" stroke="#000000" stroke-miterlimit="10" x1="29.5" y1="32" x2="29.5" y2="33"/>
      <line fill="none" stroke="#000000" stroke-miterlimit="10" x1="39.5" y1="32" x2="39.5" y2="33"/>
      <line fill="none" stroke="#000000" stroke-miterlimit="10" x1="49.5" y1="32" x2="49.5" y2="33"/>
      <line fill="none" stroke="#000000" stroke-miterlimit="10" x1="59.5" y1="32" x2="59.5" y2="33"/>
      <line fill="none" stroke="#000000" stroke-miterlimit="10" x1="69.5" y1="32" x2="69.5" y2="33"/>
      <line fill="none" stroke="#000000" stroke-miterlimit="10" x1="9.5" y1="41" x2="9.5" y2="42"/>
      <line fill="none" stroke="#000000" stroke-miterlimit="10" x1="19.5" y1="41" x2="19.5" y2="42"/>
      <line fill="none" stroke="#000000" stroke-miterlimit="10" x1="29.5" y1="41" x2="29.5" y2="42"/>
      <line fill="none" stroke="#000000" stroke-miterlimit="10" x1="39.5" y1="41" x2="39.5" y2="42"/>
      <line fill="none" stroke="#000000" stroke-miterlimit="10" x1="49.5" y1="41" x2="49.5" y2="42"/>
      <line fill="none" stroke="#000000" stroke-miterlimit="10" x1="59.5" y1="41" x2="59.5" y2="42"/>
      <line fill="none" stroke="#000000" stroke-miterlimit="10" x1="69.5" y1="41" x2="69.5" y2="42"/>
      <line fill="none" stroke="#000000" stroke-miterlimit="10" x1="9.5" y1="50" x2="9.5" y2="51"/>
      <line fill="none" stroke="#000000" stroke-miterlimit="10" x1="19.5" y1="50" x2="19.5" y2="51"/>
      <line fill="none" stroke="#000000" stroke-miterlimit="10" x1="29.5" y1="50" x2="29.5" y2="51"/>
      <line fill="none" stroke="#000000" stroke-miterlimit="10" x1="39.5" y1="50" x2="39.5" y2="51"/>
      <line fill="none" stroke="#000000" stroke-miterlimit="10" x1="49.5" y1="50" x2="49.5" y2="51"/>
      <line fill="none" stroke="#000000" stroke-miterlimit="10" x1="59.5" y1="50" x2="59.5" y2="51"/>
      <line fill="none" stroke="#000000" stroke-miterlimit="10" x1="69.5" y1="50" x2="69.5" y2="51"/>
      <line fill="none" stroke="#000000" stroke-miterlimit="10" x1="9.5" y1="59" x2="9.5" y2="60"/>
      <line fill="none" stroke="#000000" stroke-miterlimit="10" x1="19.5" y1="59" x2="19.5" y2="60"/>
      <line fill="none" stroke="#000000" stroke-miterlimit="10" x1="29.5" y1="59" x2="29.5" y2="60"/>
      <line fill="none" stroke="#000000" stroke-miterlimit="10" x1="39.5" y1="59" x2="39.5" y2="60"/>
      <line fill="none" stroke="#000000" stroke-miterlimit="10" x1="49.5" y1="59" x2="49.5" y2="60"/>
      <line fill="none" stroke="#000000" stroke-miterlimit="10" x1="59.5" y1="59" x2="59.5" y2="60"/>
      <line fill="none" stroke="#000000" stroke-miterlimit="10" x1="69.5" y1="59" x2="69.5" y2="60"/>
      <line fill="none" stroke="#000000" stroke-miterlimit="10" x1="9.5" y1="68" x2="9.5" y2="69"/>
      <line fill="none" stroke="#000000" stroke-miterlimit="10" x1="19.5" y1="68" x2="19.5" y2="69"/>
      <line fill="none" stroke="#000000" stroke-miterlimit="10" x1="29.5" y1="68" x2="29.5" y2="69"/>
      <line fill="none" stroke="#000000" stroke-miterlimit="10" x1="39.5" y1="68" x2="39.5" y2="69"/>
      <line fill="none" stroke="#000000" stroke-miterlimit="10" x1="49.5" y1="68" x2="49.5" y2="69"/>
      <line fill="none" stroke="#000000" stroke-miterlimit="10" x1="59.5" y1="68" x2="59.5" y2="69"/>
      <line fill="none" stroke="#000000" stroke-miterlimit="10" x1="69.5" y1="68" x2="69.5" y2="69"/>
      <rect x="59" width="1" height="15"/>
      <polygon points="74,46.7 73.4,46 69.6,49.8 65.8,46 65.1,46.7 68.9,50.5 65.1,54.3 65.8,54.9 69.6,51.1 73.4,54.9 74,54.3
                                                                                                                70.2,50.5 "/>
      <line fill="none" stroke="#000000" stroke-miterlimit="10" x1="0" y1="22.5" x2="79" y2="22.5"/>
    </symbol>

    <symbol id="D-thursday" viewBox="0 0 79 78">
      <g>
        <path d="M78,8.2V77H1V8.2H78 M79,7.2H0V78h79V7.2L79,7.2z"/>
      </g>
      <rect x="19" width="1" height="15"/>
      <line fill="none" stroke="#000000" stroke-miterlimit="10" x1="9.5" y1="32" x2="9.5" y2="33"/>
      <line fill="none" stroke="#000000" stroke-miterlimit="10" x1="19.5" y1="32" x2="19.5" y2="33"/>
      <line fill="none" stroke="#000000" stroke-miterlimit="10" x1="29.5" y1="32" x2="29.5" y2="33"/>
      <line fill="none" stroke="#000000" stroke-miterlimit="10" x1="39.5" y1="32" x2="39.5" y2="33"/>
      <line fill="none" stroke="#000000" stroke-miterlimit="10" x1="49.5" y1="32" x2="49.5" y2="33"/>
      <line fill="none" stroke="#000000" stroke-miterlimit="10" x1="59.5" y1="32" x2="59.5" y2="33"/>
      <line fill="none" stroke="#000000" stroke-miterlimit="10" x1="69.5" y1="32" x2="69.5" y2="33"/>
      <line fill="none" stroke="#000000" stroke-miterlimit="10" x1="9.5" y1="41" x2="9.5" y2="42"/>
      <line fill="none" stroke="#000000" stroke-miterlimit="10" x1="19.5" y1="41" x2="19.5" y2="42"/>
      <line fill="none" stroke="#000000" stroke-miterlimit="10" x1="29.5" y1="41" x2="29.5" y2="42"/>
      <line fill="none" stroke="#000000" stroke-miterlimit="10" x1="39.5" y1="41" x2="39.5" y2="42"/>
      <line fill="none" stroke="#000000" stroke-miterlimit="10" x1="49.5" y1="41" x2="49.5" y2="42"/>
      <line fill="none" stroke="#000000" stroke-miterlimit="10" x1="59.5" y1="41" x2="59.5" y2="42"/>
      <line fill="none" stroke="#000000" stroke-miterlimit="10" x1="69.5" y1="41" x2="69.5" y2="42"/>
      <line fill="none" stroke="#000000" stroke-miterlimit="10" x1="9.5" y1="50" x2="9.5" y2="51"/>
      <line fill="none" stroke="#000000" stroke-miterlimit="10" x1="19.5" y1="50" x2="19.5" y2="51"/>
      <line fill="none" stroke="#000000" stroke-miterlimit="10" x1="29.5" y1="50" x2="29.5" y2="51"/>
      <line fill="none" stroke="#000000" stroke-miterlimit="10" x1="39.5" y1="50" x2="39.5" y2="51"/>
      <line fill="none" stroke="#000000" stroke-miterlimit="10" x1="49.5" y1="50" x2="49.5" y2="51"/>
      <line fill="none" stroke="#000000" stroke-miterlimit="10" x1="59.5" y1="50" x2="59.5" y2="51"/>
      <line fill="none" stroke="#000000" stroke-miterlimit="10" x1="69.5" y1="50" x2="69.5" y2="51"/>
      <line fill="none" stroke="#000000" stroke-miterlimit="10" x1="9.5" y1="59" x2="9.5" y2="60"/>
      <line fill="none" stroke="#000000" stroke-miterlimit="10" x1="19.5" y1="59" x2="19.5" y2="60"/>
      <line fill="none" stroke="#000000" stroke-miterlimit="10" x1="29.5" y1="59" x2="29.5" y2="60"/>
      <line fill="none" stroke="#000000" stroke-miterlimit="10" x1="39.5" y1="59" x2="39.5" y2="60"/>
      <line fill="none" stroke="#000000" stroke-miterlimit="10" x1="49.5" y1="59" x2="49.5" y2="60"/>
      <line fill="none" stroke="#000000" stroke-miterlimit="10" x1="59.5" y1="59" x2="59.5" y2="60"/>
      <line fill="none" stroke="#000000" stroke-miterlimit="10" x1="69.5" y1="59" x2="69.5" y2="60"/>
      <line fill="none" stroke="#000000" stroke-miterlimit="10" x1="9.5" y1="68" x2="9.5" y2="69"/>
      <line fill="none" stroke="#000000" stroke-miterlimit="10" x1="19.5" y1="68" x2="19.5" y2="69"/>
      <line fill="none" stroke="#000000" stroke-miterlimit="10" x1="29.5" y1="68" x2="29.5" y2="69"/>
      <line fill="none" stroke="#000000" stroke-miterlimit="10" x1="39.5" y1="68" x2="39.5" y2="69"/>
      <line fill="none" stroke="#000000" stroke-miterlimit="10" x1="49.5" y1="68" x2="49.5" y2="69"/>
      <line fill="none" stroke="#000000" stroke-miterlimit="10" x1="59.5" y1="68" x2="59.5" y2="69"/>
      <line fill="none" stroke="#000000" stroke-miterlimit="10" x1="69.5" y1="68" x2="69.5" y2="69"/>
      <rect x="59" width="1" height="15"/>
      <polygon points="43.9,46.6 43.2,46 39.4,49.8 35.6,46 35,46.6 38.8,50.4 35,54.2 35.6,54.8 39.4,51 43.2,54.8 43.9,54.2 40,50.4 "/>
      <line fill="none" stroke="#000000" stroke-miterlimit="10" x1="0" y1="22.5" x2="79" y2="22.5"/>
    </symbol>

    <symbol id="D-tuesday" viewBox="0 0 79 78">
      <g>
        <path d="M78,8.2V77H1V8.2H78 M79,7.2H0V78h79V7.2L79,7.2z"/>
      </g>
      <rect x="19" width="1" height="15"/>
      <line fill="none" stroke="#000000" stroke-miterlimit="10" x1="9.5" y1="32" x2="9.5" y2="33"/>
      <line fill="none" stroke="#000000" stroke-miterlimit="10" x1="19.5" y1="32" x2="19.5" y2="33"/>
      <line fill="none" stroke="#000000" stroke-miterlimit="10" x1="29.5" y1="32" x2="29.5" y2="33"/>
      <line fill="none" stroke="#000000" stroke-miterlimit="10" x1="39.5" y1="32" x2="39.5" y2="33"/>
      <line fill="none" stroke="#000000" stroke-miterlimit="10" x1="49.5" y1="32" x2="49.5" y2="33"/>
      <line fill="none" stroke="#000000" stroke-miterlimit="10" x1="59.5" y1="32" x2="59.5" y2="33"/>
      <line fill="none" stroke="#000000" stroke-miterlimit="10" x1="69.5" y1="32" x2="69.5" y2="33"/>
      <line fill="none" stroke="#000000" stroke-miterlimit="10" x1="9.5" y1="41" x2="9.5" y2="42"/>
      <line fill="none" stroke="#000000" stroke-miterlimit="10" x1="19.5" y1="41" x2="19.5" y2="42"/>
      <line fill="none" stroke="#000000" stroke-miterlimit="10" x1="29.5" y1="41" x2="29.5" y2="42"/>
      <line fill="none" stroke="#000000" stroke-miterlimit="10" x1="39.5" y1="41" x2="39.5" y2="42"/>
      <line fill="none" stroke="#000000" stroke-miterlimit="10" x1="49.5" y1="41" x2="49.5" y2="42"/>
      <line fill="none" stroke="#000000" stroke-miterlimit="10" x1="59.5" y1="41" x2="59.5" y2="42"/>
      <line fill="none" stroke="#000000" stroke-miterlimit="10" x1="69.5" y1="41" x2="69.5" y2="42"/>
      <line fill="none" stroke="#000000" stroke-miterlimit="10" x1="9.5" y1="50" x2="9.5" y2="51"/>
      <line fill="none" stroke="#000000" stroke-miterlimit="10" x1="19.5" y1="50" x2="19.5" y2="51"/>
      <line fill="none" stroke="#000000" stroke-miterlimit="10" x1="29.5" y1="50" x2="29.5" y2="51"/>
      <line fill="none" stroke="#000000" stroke-miterlimit="10" x1="39.5" y1="50" x2="39.5" y2="51"/>
      <line fill="none" stroke="#000000" stroke-miterlimit="10" x1="49.5" y1="50" x2="49.5" y2="51"/>
      <line fill="none" stroke="#000000" stroke-miterlimit="10" x1="59.5" y1="50" x2="59.5" y2="51"/>
      <line fill="none" stroke="#000000" stroke-miterlimit="10" x1="69.5" y1="50" x2="69.5" y2="51"/>
      <line fill="none" stroke="#000000" stroke-miterlimit="10" x1="9.5" y1="59" x2="9.5" y2="60"/>
      <line fill="none" stroke="#000000" stroke-miterlimit="10" x1="19.5" y1="59" x2="19.5" y2="60"/>
      <line fill="none" stroke="#000000" stroke-miterlimit="10" x1="29.5" y1="59" x2="29.5" y2="60"/>
      <line fill="none" stroke="#000000" stroke-miterlimit="10" x1="39.5" y1="59" x2="39.5" y2="60"/>
      <line fill="none" stroke="#000000" stroke-miterlimit="10" x1="49.5" y1="59" x2="49.5" y2="60"/>
      <line fill="none" stroke="#000000" stroke-miterlimit="10" x1="59.5" y1="59" x2="59.5" y2="60"/>
      <line fill="none" stroke="#000000" stroke-miterlimit="10" x1="69.5" y1="59" x2="69.5" y2="60"/>
      <line fill="none" stroke="#000000" stroke-miterlimit="10" x1="9.5" y1="68" x2="9.5" y2="69"/>
      <line fill="none" stroke="#000000" stroke-miterlimit="10" x1="19.5" y1="68" x2="19.5" y2="69"/>
      <line fill="none" stroke="#000000" stroke-miterlimit="10" x1="29.5" y1="68" x2="29.5" y2="69"/>
      <line fill="none" stroke="#000000" stroke-miterlimit="10" x1="39.5" y1="68" x2="39.5" y2="69"/>
      <line fill="none" stroke="#000000" stroke-miterlimit="10" x1="49.5" y1="68" x2="49.5" y2="69"/>
      <line fill="none" stroke="#000000" stroke-miterlimit="10" x1="59.5" y1="68" x2="59.5" y2="69"/>
      <line fill="none" stroke="#000000" stroke-miterlimit="10" x1="69.5" y1="68" x2="69.5" y2="69"/>
      <rect x="59" width="1" height="15"/>
      <polygon points="23.9,37.7 23.3,37 19.5,40.8 15.7,37 15.1,37.7 18.9,41.5 15.1,45.3 15.7,45.9 19.5,42.1 23.3,45.9 23.9,45.3
                                                                                                                  20.1,41.5 "/>
      <line fill="none" stroke="#000000" stroke-miterlimit="10" x1="0" y1="22.5" x2="79" y2="22.5"/>
    </symbol>

    <symbol id="D-twitter" viewBox="0 0 30 30">
      <g id="Layer_7">
        <path d="M-407,10.9c7.8,0,14.1,6.3,14.1,14.1s-6.3,14.1-14.1,14.1s-14.1-6.3-14.1-14.1S-414.8,10.9-407,10.9 M-407,10
                                                                                                                      c-8.4,0-15,6.6-15,15s6.6,15,15,15s15-6.6,15-15S-398.6,10-407,10L-407,10z"/>
        <path d="M-400.7,21.7V22c0,4.5-3.3,9.6-9.3,9.6c-1.8,0-3.6-0.6-5.1-1.5c0.3,0,0.6,0,0.9,0c1.5,0,3-0.6,4.2-1.5
                                                                                                                        c-1.5,0-2.7-0.9-3-2.4c0.3,0,0.3,0,0.6,0c0.3,0,0.6,0,0.9,0c-1.8-0.3-3-1.5-3-3l0,0c0.6,0,1.2,0.3,1.5,0.3
                                                                                                                        c-0.9-0.6-1.2-1.5-1.2-2.7c0-0.6,0.3-1.2,0.3-1.8c1.5,2.1,4.2,3.3,6.9,3.6c0-0.3,0-0.6,0-0.6c0-1.8,1.5-3.3,3.3-3.3
                                                                                                                        c0.9,0,1.8,0.3,2.4,0.9c0.6,0,1.5-0.3,2.1-0.9c-0.6,0.9-0.9,1.5-1.8,1.8c0.6,0,1.2-0.3,1.8-0.6C-399.5,20.8-400.1,21.4-400.7,21.7z
                                                                                                                        "/>
      </g>
      <g id="Layer_7_1_">
        <path d="M-407,10.9c7.8,0,14.1,6.3,14.1,14.1s-6.3,14.1-14.1,14.1s-14.1-6.3-14.1-14.1S-414.8,10.9-407,10.9 M-407,10
                                                                                                                          c-8.4,0-15,6.6-15,15s6.6,15,15,15s15-6.6,15-15S-398.6,10-407,10L-407,10z"/>
        <path d="M-400.7,21.7V22c0,4.5-3.3,9.6-9.3,9.6c-1.8,0-3.6-0.6-5.1-1.5c0.3,0,0.6,0,0.9,0c1.5,0,3-0.6,4.2-1.5
                                                                                                                            c-1.5,0-2.7-0.9-3-2.4c0.3,0,0.3,0,0.6,0c0.3,0,0.6,0,0.9,0c-1.8-0.3-3-1.5-3-3l0,0c0.6,0,1.2,0.3,1.5,0.3
                                                                                                                            c-0.9-0.6-1.2-1.5-1.2-2.7c0-0.6,0.3-1.2,0.3-1.8c1.5,2.1,4.2,3.3,6.9,3.6c0-0.3,0-0.6,0-0.6c0-1.8,1.5-3.3,3.3-3.3
                                                                                                                            c0.9,0,1.8,0.3,2.4,0.9c0.6,0,1.5-0.3,2.1-0.9c-0.6,0.9-0.9,1.5-1.8,1.8c0.6,0,1.2-0.3,1.8-0.6C-399.5,20.8-400.1,21.4-400.7,21.7z
                                                                                                                            "/>
      </g>
      <g id="Layer_7_2_">
        <path d="M-407,10.9c7.8,0,14.1,6.3,14.1,14.1s-6.3,14.1-14.1,14.1s-14.1-6.3-14.1-14.1S-414.8,10.9-407,10.9 M-407,10
                                                                                                                              c-8.4,0-15,6.6-15,15s6.6,15,15,15s15-6.6,15-15S-398.6,10-407,10L-407,10z"/>
        <path d="M-400.7,21.7V22c0,4.5-3.3,9.6-9.3,9.6c-1.8,0-3.6-0.6-5.1-1.5c0.3,0,0.6,0,0.9,0c1.5,0,3-0.6,4.2-1.5
                                                                                                                                c-1.5,0-2.7-0.9-3-2.4c0.3,0,0.3,0,0.6,0c0.3,0,0.6,0,0.9,0c-1.8-0.3-3-1.5-3-3l0,0c0.6,0,1.2,0.3,1.5,0.3
                                                                                                                                c-0.9-0.6-1.2-1.5-1.2-2.7c0-0.6,0.3-1.2,0.3-1.8c1.5,2.1,4.2,3.3,6.9,3.6c0-0.3,0-0.6,0-0.6c0-1.8,1.5-3.3,3.3-3.3
                                                                                                                                c0.9,0,1.8,0.3,2.4,0.9c0.6,0,1.5-0.3,2.1-0.9c-0.6,0.9-0.9,1.5-1.8,1.8c0.6,0,1.2-0.3,1.8-0.6C-399.5,20.8-400.1,21.4-400.7,21.7z
                                                                                                                                "/>
      </g>
      <g id="Layer_7_3_">
        <path d="M-407,10.9c7.8,0,14.1,6.3,14.1,14.1s-6.3,14.1-14.1,14.1s-14.1-6.3-14.1-14.1S-414.8,10.9-407,10.9 M-407,10
                                                                                                                                  c-8.4,0-15,6.6-15,15s6.6,15,15,15s15-6.6,15-15S-398.6,10-407,10L-407,10z"/>
        <path d="M-400.7,21.7V22c0,4.5-3.3,9.6-9.3,9.6c-1.8,0-3.6-0.6-5.1-1.5c0.3,0,0.6,0,0.9,0c1.5,0,3-0.6,4.2-1.5
                                                                                                                                    c-1.5,0-2.7-0.9-3-2.4c0.3,0,0.3,0,0.6,0c0.3,0,0.6,0,0.9,0c-1.8-0.3-3-1.5-3-3l0,0c0.6,0,1.2,0.3,1.5,0.3
                                                                                                                                    c-0.9-0.6-1.2-1.5-1.2-2.7c0-0.6,0.3-1.2,0.3-1.8c1.5,2.1,4.2,3.3,6.9,3.6c0-0.3,0-0.6,0-0.6c0-1.8,1.5-3.3,3.3-3.3
                                                                                                                                    c0.9,0,1.8,0.3,2.4,0.9c0.6,0,1.5-0.3,2.1-0.9c-0.6,0.9-0.9,1.5-1.8,1.8c0.6,0,1.2-0.3,1.8-0.6C-399.5,20.8-400.1,21.4-400.7,21.7z
                                                                                                                                    "/>
      </g>
      <g id="Layer_7_4_">
        <path d="M15,0.9c7.8,0,14.1,6.3,14.1,14.1S22.8,29.1,15,29.1S0.9,22.8,0.9,15S7.2,0.9,15,0.9 M15,0C6.6,0,0,6.6,0,15s6.6,15,15,15
                                                                                                                                      s15-6.6,15-15S23.4,0,15,0L15,0z"/>
        <path d="M21.3,11.7V12c0,4.5-3.3,9.6-9.3,9.6c-1.8,0-3.6-0.6-5.1-1.5c0.3,0,0.6,0,0.9,0c1.5,0,3-0.6,4.2-1.5c-1.5,0-2.7-0.9-3-2.4
                                                                                                                                        c0.3,0,0.3,0,0.6,0s0.6,0,0.9,0c-1.8-0.3-3-1.5-3-3l0,0c0.6,0,1.2,0.3,1.5,0.3c-0.9-0.6-1.2-1.5-1.2-2.7c0-0.6,0.3-1.2,0.3-1.8
                                                                                                                                        c1.5,2.1,4.2,3.3,6.9,3.6c0-0.3,0-0.6,0-0.6c0-1.8,1.5-3.3,3.3-3.3c0.9,0,1.8,0.3,2.4,0.9c0.6,0,1.5-0.3,2.1-0.9
                                                                                                                                        c-0.6,0.9-0.9,1.5-1.8,1.8c0.6,0,1.2-0.3,1.8-0.6C22.5,10.8,21.9,11.4,21.3,11.7z"/>
      </g>
    </symbol>

    <symbol id="D-u200" viewBox="0 0 78 78">
      <g>
        <path d="M71,11v28H18V11H71 M72,10H17v30h55V10L72,10z"/>
      </g>
      <g>
        <rect x="21" y="33.4" transform="matrix(0.7071 -0.7071 0.7071 0.7071 -19.8406 47.9959)" fill="#FFFFFF" width="54" height="29"/>
        <path d="M56.8,19.3l19.8,19.8L39.1,76.6L19.3,56.8L56.8,19.3 M56.8,17.9L17.9,56.8L39.1,78L78,39.1L56.8,17.9L56.8,17.9z"/>
      </g>
      <g>
        <path fill="#FFFFFF" d="M31,27.5c-2.5,0-4.5-2-4.5-4.5s2-4.5,4.5-4.5s4.5,2,4.5,4.5S33.5,27.5,31,27.5z"/>
        <path d="M31,19c2.2,0,4,1.8,4,4s-1.8,4-4,4s-4-1.8-4-4S28.8,19,31,19 M31,18c-2.8,0-5,2.2-5,5s2.2,5,5,5s5-2.2,5-5S33.8,18,31,18
                                                                                                                                          L31,18z"/>
      </g>
      <g>
        <path fill="#FFFFFF" d="M5,36.5c-2.5,0-4.5-2-4.5-4.5s2-4.5,4.5-4.5s4.5,2,4.5,4.5S7.5,36.5,5,36.5z"/>
        <g>
          <path d="M5,28c2.2,0,4,1.8,4,4s-1.8,4-4,4s-4-1.8-4-4S2.8,28,5,28 M5,27c-2.8,0-5,2.2-5,5s2.2,5,5,5s5-2.2,5-5S7.8,27,5,27L5,27z"
                                                                                                                                              />
        </g>
      </g>
      <g>
        <path fill="#FFFFFF" d="M35.8,13.5c-1.2-0.1-2.3-0.6-3.1-1.5s-1.2-2-1.2-3.2c0.1-2.4,2.1-4.3,4.5-4.3c0.1,0,0.2,0,0.2,0
                                                                                                                                              c1.2,0.1,2.3,0.6,3.1,1.5s1.2,2,1.2,3.2c-0.1,2.4-2.1,4.3-4.5,4.3C35.9,13.5,35.8,13.5,35.8,13.5z"/>
        <path d="M36,5L36,5c0.1,0,0.1,0,0.2,0c1.1,0.1,2,0.5,2.8,1.3c0.7,0.8,1.1,1.8,1,2.9c-0.1,2.1-1.9,3.8-4,3.8c-0.1,0-0.1,0-0.2,0
                                                                                                                                                c-1.1-0.1-2-0.5-2.8-1.3c-0.7-0.8-1.1-1.8-1-2.9C32.1,6.7,33.9,5,36,5 M36,4c-2.6,0-4.9,2.1-5,4.7c-0.1,2.8,2,5.1,4.7,5.3
                                                                                                                                                c0.1,0,0.2,0,0.3,0c2.6,0,4.9-2.1,5-4.7c0.1-2.8-2-5.1-4.7-5.3C36.2,4,36.1,4,36,4L36,4z"/>
      </g>
    </symbol>

    <symbol id="D-videoplay" viewBox="0 0 41 41">
      <path d="M20.5,1C31.3,1,40,9.7,40,20.5S31.3,40,20.5,40S1,31.3,1,20.5S9.7,1,20.5,1 M20.5,0C9.2,0,0,9.2,0,20.5S9.2,41,20.5,41
                                                                                                                                                S41,31.8,41,20.5S31.8,0,20.5,0L20.5,0z"/>
      <g>
        <path d="M16.6,14.5l10.6,6.1l-10.6,6.1V14.5 M15.5,12.5v16.1l14-8.1L15.5,12.5L15.5,12.5z"/>
      </g>
    </symbol>

    <symbol id="D-wednesday" viewBox="0 0 79 78">
      <g>
        <path d="M78,8.2V77H1V8.2H78 M79,7.2H0V78h79V7.2L79,7.2z"/>
      </g>
      <rect x="19" width="1" height="15"/>
      <line fill="none" stroke="#000000" stroke-miterlimit="10" x1="9.5" y1="32" x2="9.5" y2="33"/>
      <line fill="none" stroke="#000000" stroke-miterlimit="10" x1="19.5" y1="32" x2="19.5" y2="33"/>
      <line fill="none" stroke="#000000" stroke-miterlimit="10" x1="29.5" y1="32" x2="29.5" y2="33"/>
      <line fill="none" stroke="#000000" stroke-miterlimit="10" x1="39.5" y1="32" x2="39.5" y2="33"/>
      <line fill="none" stroke="#000000" stroke-miterlimit="10" x1="49.5" y1="32" x2="49.5" y2="33"/>
      <line fill="none" stroke="#000000" stroke-miterlimit="10" x1="59.5" y1="32" x2="59.5" y2="33"/>
      <line fill="none" stroke="#000000" stroke-miterlimit="10" x1="69.5" y1="32" x2="69.5" y2="33"/>
      <line fill="none" stroke="#000000" stroke-miterlimit="10" x1="9.5" y1="41" x2="9.5" y2="42"/>
      <line fill="none" stroke="#000000" stroke-miterlimit="10" x1="19.5" y1="41" x2="19.5" y2="42"/>
      <line fill="none" stroke="#000000" stroke-miterlimit="10" x1="29.5" y1="41" x2="29.5" y2="42"/>
      <line fill="none" stroke="#000000" stroke-miterlimit="10" x1="39.5" y1="41" x2="39.5" y2="42"/>
      <line fill="none" stroke="#000000" stroke-miterlimit="10" x1="49.5" y1="41" x2="49.5" y2="42"/>
      <line fill="none" stroke="#000000" stroke-miterlimit="10" x1="59.5" y1="41" x2="59.5" y2="42"/>
      <line fill="none" stroke="#000000" stroke-miterlimit="10" x1="69.5" y1="41" x2="69.5" y2="42"/>
      <line fill="none" stroke="#000000" stroke-miterlimit="10" x1="9.5" y1="50" x2="9.5" y2="51"/>
      <line fill="none" stroke="#000000" stroke-miterlimit="10" x1="19.5" y1="50" x2="19.5" y2="51"/>
      <line fill="none" stroke="#000000" stroke-miterlimit="10" x1="29.5" y1="50" x2="29.5" y2="51"/>
      <line fill="none" stroke="#000000" stroke-miterlimit="10" x1="39.5" y1="50" x2="39.5" y2="51"/>
      <line fill="none" stroke="#000000" stroke-miterlimit="10" x1="49.5" y1="50" x2="49.5" y2="51"/>
      <line fill="none" stroke="#000000" stroke-miterlimit="10" x1="59.5" y1="50" x2="59.5" y2="51"/>
      <line fill="none" stroke="#000000" stroke-miterlimit="10" x1="69.5" y1="50" x2="69.5" y2="51"/>
      <line fill="none" stroke="#000000" stroke-miterlimit="10" x1="9.5" y1="59" x2="9.5" y2="60"/>
      <line fill="none" stroke="#000000" stroke-miterlimit="10" x1="19.5" y1="59" x2="19.5" y2="60"/>
      <line fill="none" stroke="#000000" stroke-miterlimit="10" x1="29.5" y1="59" x2="29.5" y2="60"/>
      <line fill="none" stroke="#000000" stroke-miterlimit="10" x1="39.5" y1="59" x2="39.5" y2="60"/>
      <line fill="none" stroke="#000000" stroke-miterlimit="10" x1="49.5" y1="59" x2="49.5" y2="60"/>
      <line fill="none" stroke="#000000" stroke-miterlimit="10" x1="59.5" y1="59" x2="59.5" y2="60"/>
      <line fill="none" stroke="#000000" stroke-miterlimit="10" x1="69.5" y1="59" x2="69.5" y2="60"/>
      <line fill="none" stroke="#000000" stroke-miterlimit="10" x1="9.5" y1="68" x2="9.5" y2="69"/>
      <line fill="none" stroke="#000000" stroke-miterlimit="10" x1="19.5" y1="68" x2="19.5" y2="69"/>
      <line fill="none" stroke="#000000" stroke-miterlimit="10" x1="29.5" y1="68" x2="29.5" y2="69"/>
      <line fill="none" stroke="#000000" stroke-miterlimit="10" x1="39.5" y1="68" x2="39.5" y2="69"/>
      <line fill="none" stroke="#000000" stroke-miterlimit="10" x1="49.5" y1="68" x2="49.5" y2="69"/>
      <line fill="none" stroke="#000000" stroke-miterlimit="10" x1="59.5" y1="68" x2="59.5" y2="69"/>
      <line fill="none" stroke="#000000" stroke-miterlimit="10" x1="69.5" y1="68" x2="69.5" y2="69"/>
      <rect x="59" width="1" height="15"/>
      <polygon points="33.9,64.8 33.3,64.1 29.5,67.9 25.7,64.1 25.1,64.8 28.9,68.6 25.1,72.4 25.7,73 29.5,69.2 33.3,73 33.9,72.4
                                                                                                                                                  30.1,68.6 "/>
      <line fill="none" stroke="#000000" stroke-miterlimit="10" x1="0" y1="22.5" x2="79" y2="22.5"/>
    </symbol>

    <symbol id="M-arrowdown" viewBox="0 0 25 14">
      <polygon points="12.5,14 0,1.4 1.4,0 12.5,11.1 23.6,0 25,1.4 "/>
    </symbol>

    <symbol id="M-arrowleft" viewBox="0 0 32 60">
      <polygon points="30.6,0 32,1.4 2.8,30 32,58.6 30.6,60 0,30 "/>
    </symbol>

    <symbol id="M-arrowright" viewBox="0 0 32 60">
      <polygon points="1.4,60 0,58.6 29.2,30 0,1.4 1.4,0 32,30 "/>
    </symbol>

    <symbol id="M-arrowup" viewBox="57.8 0 25 14">
      <polygon points="70.3,0 82.8,12.6 81.4,14 70.3,2.9 59.2,14 57.8,12.6 "/>
    </symbol>

    <symbol id="M-burger" viewBox="0 0 60 40">
      <rect width="60" height="2"/>
      <rect y="38" width="60" height="2"/>
      <rect y="19" width="60" height="2"/>
    </symbol>

    <symbol id="M-detsker" viewBox="0 0 60 55">
      <path d="M43,5V0h-2v5H19V0h-2v5H0v12v2v36h60V19v-2V5H43z M58,53H2V19h56V53z M58,17H2V7h15v5h2V7h22v5h2V7h15V17z"/>
      <rect x="9" y="24" width="2" height="2"/>
      <rect x="9" y="31" width="2" height="2"/>
      <rect x="9" y="38" width="2" height="2"/>
      <rect x="9" y="45" width="2" height="2"/>
      <rect x="17" y="24" width="2" height="2"/>
      <rect x="17" y="31" width="2" height="2"/>
      <rect x="17" y="38" width="2" height="2"/>
      <rect x="17" y="45" width="2" height="2"/>
      <rect x="25" y="24" width="2" height="2"/>
      <rect x="25" y="31" width="2" height="2"/>
      <rect x="25" y="38" width="2" height="2"/>
      <rect x="25" y="45" width="2" height="2"/>
      <rect x="33" y="24" width="2" height="2"/>
      <rect x="33" y="31" width="2" height="2"/>
      <rect x="33" y="38" width="2" height="2"/>
      <rect x="33" y="45" width="2" height="2"/>
      <rect x="41" y="24" width="2" height="2"/>
      <rect x="41" y="31" width="2" height="2"/>
      <rect x="41" y="38" width="2" height="2"/>
      <rect x="41" y="45" width="2" height="2"/>
      <rect x="49" y="24" width="2" height="2"/>
      <rect x="49" y="31" width="2" height="2"/>
      <rect x="49" y="38" width="2" height="2"/>
      <rect x="49" y="45" width="2" height="2"/>
    </symbol>

    <symbol id="M-facebook" viewBox="0 0 80 80">
      <path d="M48.8,39.7h-5.6c0,9.6,0,21.6,0,21.6h-8.8c0,0,0-12,0-21.6h-4v-7.2h4v-4.8c0-3.2,1.6-8.8,8.8-8.8h6.4v7.2c0,0-4,0-4.8,0
                                                                                                                                                    c-0.8,0-1.6,0-1.6,2.4v4.8h6.4L48.8,39.7z"/>
      <g>
        <path d="M40,1.7c21.1,0,38.3,17.2,38.3,38.3S61.1,78.3,40,78.3S1.7,61.1,1.7,40S18.9,1.7,40,1.7 M40,0C17.9,0,0,17.9,0,40
                                                                                                                                                        s17.9,40,40,40s40-17.9,40-40S62.1,0,40,0L40,0z"/>
      </g>
    </symbol>

    <symbol id="M-gamlescene" viewBox="0 0 99 65">
      <path d="M69.5,20.2h-1v-6c-1.2-1.7-5.3-6.7-13.9-8.6l-10.4,0c-8.5,1.9-12.4,6.9-13.6,8.6v6h-1v-6.3l0.1-0.1c3-4.3,8.2-7.8,14.4-9.2
                                                                                                                                                        l10.7,0C61,6,66.4,9.4,69.4,13.8l0.1,0.1V20.2z"/>
      <path d="M35.5,20.2c-1.1,0-2-0.9-2-2c0-1.1,0.9-2,2-2c1.1,0,2,0.9,2,2C37.5,19.3,36.6,20.2,35.5,20.2z M35.5,16.8
                                                                                                                                                          c-0.8,0-1.4,0.6-1.4,1.4c0,0.8,0.6,1.4,1.4,1.4s1.4-0.6,1.4-1.4C36.9,17.4,36.3,16.8,35.5,16.8z"/>
      <path d="M42.5,20.2c-1.1,0-2-0.9-2-2c0-1.1,0.9-2,2-2c1.1,0,2,0.9,2,2C44.5,19.3,43.6,20.2,42.5,20.2z M42.5,16.8
                                                                                                                                                            c-0.8,0-1.4,0.6-1.4,1.4c0,0.8,0.6,1.4,1.4,1.4s1.4-0.6,1.4-1.4C43.9,17.4,43.2,16.8,42.5,16.8z"/>
      <path d="M49.5,20.2c-1.1,0-2-0.9-2-2c0-1.1,0.9-2,2-2c1.1,0,2,0.9,2,2C51.5,19.3,50.6,20.2,49.5,20.2z M49.5,16.8
                                                                                                                                                              c-0.8,0-1.4,0.6-1.4,1.4c0,0.8,0.6,1.4,1.4,1.4s1.4-0.6,1.4-1.4C50.9,17.4,50.2,16.8,49.5,16.8z"/>
      <path d="M56.5,20.2c-1.1,0-2-0.9-2-2c0-1.1,0.9-2,2-2c1.1,0,2,0.9,2,2C58.5,19.3,57.6,20.2,56.5,20.2z M56.5,16.8
                                                                                                                                                                c-0.8,0-1.4,0.6-1.4,1.4c0,0.8,0.6,1.4,1.4,1.4c0.8,0,1.4-0.6,1.4-1.4C57.9,17.4,57.3,16.8,56.5,16.8z"/>
      <path d="M63.5,20.2c-1.1,0-2-0.9-2-2c0-1.1,0.9-2,2-2c1.1,0,2,0.9,2,2C65.5,19.3,64.6,20.2,63.5,20.2z M63.5,16.8
                                                                                                                                                                  c-0.8,0-1.4,0.6-1.4,1.4c0,0.8,0.6,1.4,1.4,1.4s1.4-0.6,1.4-1.4C64.9,17.4,64.3,16.8,63.5,16.8z"/>
      <path fill="none" stroke="#333333" stroke-width="2.6774" stroke-miterlimit="10" d="M49.5,61.9"/>
      <path fill="none" stroke="#333333" stroke-width="2.6774" stroke-miterlimit="10" d="M49.5,61.9"/>
      <rect x="72.5" y="23.3" width="0.5" height="37.6"/>
      <rect x="26" y="23.3" width="0.5" height="37.6"/>
      <path fill="none" stroke="#333333" stroke-width="2.6774" stroke-miterlimit="10" d="M49.5,61.9"/>
      <path fill="none" stroke="#333333" stroke-width="2.6774" stroke-miterlimit="10" d="M49.5,61.9"/>
      <path d="M52.9,45.6h-1v-6.1c0-1.8-1.3-2.5-2.4-2.5s-2.4,0.7-2.4,2.5v6.1h-1v-6.1c0-2.4,1.7-3.5,3.4-3.5s3.4,1.1,3.4,3.5V45.6z"/>
      <path d="M64.7,39.5c0-2.4-1.7-3.5-3.4-3.5c-1.6,0-3.4,1.1-3.4,3.5v6.1h1v-6.1c0-1.8,1.3-2.5,2.4-2.5c1.1,0,2.4,0.7,2.4,2.5v6.1h1
                                                                                                                                                                    V39.5z"/>
      <path d="M41,45.6h-1v-6.1c0-1.8-1.3-2.5-2.4-2.5s-2.4,0.7-2.4,2.5v6.1h-1v-6.1c0-2.4,1.7-3.5,3.4-3.5c1.6,0,3.4,1.1,3.4,3.5V45.6z"
                                                                                                                                                                      />
      <path d="M21,45.6h-1v-6.1c0-1.8-1.3-2.5-2.4-2.5c-1.1,0-2.4,0.7-2.4,2.5v6.1h-1v-6.1c0-2.4,1.7-3.5,3.4-3.5c1.6,0,3.4,1.1,3.4,3.5
                                                                                                                                                                        V45.6z"/>
      <path d="M84.7,46.1h-1v-6.7c0-1.8-1.3-2.5-2.4-2.5S79,37.6,79,39.4v6.7h-1v-6.7c0-2.4,1.7-3.5,3.4-3.5s3.4,1.1,3.4,3.5V46.1z"/>
      <path d="M40.7,53.5c0-2.4-1.7-3.5-3.3-3.5c-1.6,0-3.3,1.1-3.3,3.5v7.3h1v-7.3c0-1.8,1.3-2.5,2.3-2.5s2.3,0.7,2.3,2.5v7.3h1V53.5z"/>
      <rect x="49.2" y="0" width="0.5" height="4.8"/>
      <rect x="14.8" y="39.5" width="5.7" height="0.5"/>
      <rect x="78.5" y="39.5" width="5.7" height="0.5"/>
      <rect x="34.6" y="53.5" width="5.7" height="0.5"/>
      <path d="M52.9,53.5c0-2.4-1.7-3.5-3.3-3.5s-3.3,1.1-3.3,3.5v7.3h1v-7.3c0-1.8,1.3-2.5,2.3-2.5s2.3,0.7,2.3,2.5v7.3h1V53.5z"/>
      <rect x="46.7" y="53.5" width="5.7" height="0.5"/>
      <rect y="64" width="99" height="1"/>
      <rect x="8" y="34.1" width="1" height="26.9"/>
      <rect x="90.1" y="34" width="1" height="26.9"/>
      <rect x="8.8" y="45.4" width="81.7" height="1"/>
      <path d="M64.7,53.5c0-2.4-1.7-3.5-3.3-3.5c-1.6,0-3.3,1.1-3.3,3.5v6.9h1v-6.9c0-1.8,1.3-2.5,2.3-2.5s2.3,0.7,2.3,2.5v6.9h1V53.5z"/>
      <rect x="58.5" y="53.5" width="5.7" height="0.5"/>
      <path d="M87.2,23.2l-14.7-6.8v1.2l12.2,5.6H14.3l12.3-5.5v-1.2l-14.7,6.7H8v9.1h83v-9.1H87.2z M90,31.3H9v-7.1H90V31.3z"/>
      <rect y="60" width="99" height="1"/>
      <path d="M67.9,49.4"/>
    </symbol>

    <symbol id="M-linkedin" viewBox="0 0 80 80">
      <g>
        <path d="M44,35.7v-0.8V35.7z"/>
        <path d="M31.2,57.3h-8.8V31.7h8.8V57.3z M26.4,28.5L26.4,28.5c-2.4,0-4.8-2.4-4.8-4.8s1.6-4.8,4.8-4.8s4.8,1.6,4.8,4.8
                                                                                                                                                                            C31.2,26.1,29.6,28.5,26.4,28.5z M61.6,57.3h-8V43.7c0-3.2-1.6-5.6-4-5.6c-3.2,0-4.8,1.6-4.8,3.2c0,0.8,0,1.6,0,2.4v14.4H36
                                                                                                                                                                            c0,0,0-23.2,0-25.6h8.8v4c0.8-1.6,3.2-4,8-4c5.6,0,9.6,4,9.6,12v12.8H61.6z"/>
      </g>
      <g>
        <path d="M40,1.7c21.1,0,38.3,17.2,38.3,38.3S61.1,78.3,40,78.3S1.7,61.1,1.7,40S18.9,1.7,40,1.7 M40,0C17.9,0,0,17.9,0,40
                                                                                                                                                                              s17.9,40,40,40s40-17.9,40-40S62.1,0,40,0L40,0z"/>
      </g>
    </symbol>

    <symbol id="M-operaen" viewBox="0 0 99 65">
      <polygon points="69,20 68,20 68,11 32,11 32,20 31,20 31,10 69,10 "/>
      <rect x="0" y="22" width="99" height="1"/>
      <path d="M38.3,47c-1.9,0-3.5-1.6-3.5-3.5s1.6-3.5,3.5-3.5s3.5,1.6,3.5,3.5S40.2,47,38.3,47z M38.3,41c-1.4,0-2.5,1.1-2.5,2.5
                                                                                                                                                                              s1.1,2.5,2.5,2.5s2.5-1.1,2.5-2.5S39.6,41,38.3,41z"/>
      <path d="M49.5,47c-1.9,0-3.5-1.6-3.5-3.5s1.6-3.5,3.5-3.5s3.5,1.6,3.5,3.5S51.4,47,49.5,47z M49.5,41c-1.4,0-2.5,1.1-2.5,2.5
                                                                                                                                                                                s1.1,2.5,2.5,2.5s2.5-1.1,2.5-2.5S50.9,41,49.5,41z"/>
      <path d="M60.5,47c-1.9,0-3.5-1.6-3.5-3.5s1.6-3.5,3.5-3.5s3.5,1.6,3.5,3.5S62.4,47,60.5,47z M60.5,41c-1.4,0-2.5,1.1-2.5,2.5
                                                                                                                                                                                  s1.1,2.5,2.5,2.5s2.5-1.1,2.5-2.5S61.9,41,60.5,41z"/>
      <polyline points="49.6,54.9 49.6,32.3 49.1,32.3 49.1,54.9 38.5,54.9 38.5,32.3 38,32.3 38,54.9 27.5,54.9 27.5,32.3 27,32.3
                                                                                                                                                                                    27,54.9 9,55 9,38 17,38 17,37 8,37 8,56 91,56 91,37 83,37 83,38 90,38 90,55 "/>
      <polyline points="61,54.9 61,32.3 60.5,32.3 60.5,54.9 50.3,54.9 "/>
      <polyline points="89.9,54.9 72,54.9 72,32.3 71.5,32.3 71.5,54.9 62,54.9 "/>
      <rect y="59" width="99" height="1"/>
      <g>
        <polygon points="17,33.9 0,23 0,24.2 17,35 	"/>
      </g>
      <g>
        <polygon points="83,33.8 99,23 99,24.2 83,35 	"/>
      </g>
      <path d="M73.5,65c-1.5,0-2.8-0.6-3.9-1.7c-1.1,1.1-2.4,1.7-3.9,1.7l0,0c-1.5,0-2.8-0.6-3.9-1.7c-1.1,1.1-2.4,1.7-3.9,1.7
                                                                                                                                                                                      c-1.5,0-2.8-0.6-3.9-1.7c-1.1,1.1-2.4,1.7-3.9,1.7c-1.5,0-2.8-0.6-3.9-1.7c-1.1,1.1-2.4,1.7-3.9,1.7l0,0c-1.5,0-2.8-0.6-3.9-1.7
                                                                                                                                                                                      C37.4,64.4,36,65,34.5,65c-1.5,0-2.8-0.6-3.9-1.7c-1.1,1.1-2.4,1.7-3.9,1.7c-1.5,0-3-0.7-4.1-1.9l-0.2-0.2l0.4-0.3l0.2,0.2
                                                                                                                                                                                      c1,1.1,2.3,1.7,3.7,1.7c1.4,0,2.7-0.6,3.7-1.7l0.2-0.2l0.2,0.2c1,1.1,2.3,1.7,3.7,1.7c1.4,0,2.7-0.6,3.7-1.7l0.2-0.2l0.2,0.2
                                                                                                                                                                                      c1,1.1,2.3,1.7,3.7,1.7l0,0c1.4,0,2.7-0.6,3.7-1.7l0.2-0.2l0.2,0.2c1,1.1,2.3,1.7,3.7,1.7c1.4,0,2.7-0.6,3.7-1.7l0.2-0.2l0.2,0.2
                                                                                                                                                                                      c1,1.1,2.3,1.7,3.7,1.7c1.4,0,2.7-0.6,3.7-1.7l0.2-0.2l0.2,0.2c1,1.1,2.3,1.7,3.7,1.7l0,0c1.4,0,2.7-0.6,3.7-1.7l0.2-0.2l0.2,0.2
                                                                                                                                                                                      c1,1.1,2.3,1.7,3.7,1.7s2.7-0.6,3.7-1.7l0.2-0.2l0.4,0.3l-0.2,0.2C76.5,64.3,75,65,73.5,65z"/>
      <g>
        <path fill="none" d="M23.3,52.5c0.2,0.6,0.3,0.4,0.3,0.4l52.8-1c0,0,0.1,1.2,0.3,0.6H23.3z"/>
        <path d="M76.9,52H23.1c0.1,0.2,0.1,0.3,0.2,0.5h53.5C76.8,52.3,76.9,52.2,76.9,52z"/>
        <path d="M79.3,43H20.7c0,0.2,0.1,0.3,0.1,0.5h58.4C79.3,43.3,79.3,43.2,79.3,43z"/>
        <path d="M79.7,37.1H20.3c0,0.2,0,0.3-0.1,0.5h59.6C79.8,37.4,79.8,37.2,79.7,37.1z"/>
        <path d="M78.7,34H21.4c-0.1,0.2-0.2,0.3-0.3,0.5H79C78.9,34.3,78.8,34.2,78.7,34z"/>
        <path d="M79.8,40H20.3c0,0.2,0,0.3,0.1,0.5h59.4C79.8,40.3,79.8,40.2,79.8,40z"/>
        <path d="M78.7,46.1H21.4c0.1,0.2,0.1,0.3,0.1,0.5h57C78.6,46.4,78.6,46.2,78.7,46.1z"/>
        <path d="M77.8,49.1H22.2c0.1,0.2,0.1,0.3,0.2,0.5h55.3C77.8,49.4,77.8,49.2,77.8,49.1z"/>
      </g>
    </symbol>

    <symbol id="M-search" viewBox="0 0 50 50">
      <path d="M50,48.7L33.3,31.9c3.1-3.4,4.9-7.9,4.9-12.8C38.2,8.6,29.6,0,19.1,0S0,8.6,0,19.1s8.6,19.1,19.1,19.1
                                                                                                                                                                                        c4.9,0,9.4-1.9,12.8-4.9L48.7,50L50,48.7z M1.9,19.1c0-9.5,7.7-17.2,17.2-17.2s17.2,7.7,17.2,17.2s-7.7,17.2-17.2,17.2
                                                                                                                                                                                        S1.9,28.6,1.9,19.1z"/>
    </symbol>

    <symbol id="M-skuespilhuset" viewBox="0 0 99 65">
      <rect x="61" y="53" width="8" height="0.5"/>
      <path d="M67.9,52.7"/>
      <rect x="44" y="56.5" width="55" height="1"/>
      <rect x="28" y="36.5" width="0.5" height="10"/>
      <rect x="13" y="41.5" width="7" height="1"/>
      <rect x="6" y="44.5" width="6.9" height="1"/>
      <g>
        <rect x="49" y="43.5" width="6.8" height="1"/>
      </g>
      <polygon points="56,23.5 55,23.5 55,9.5 29,9.5 29,23.5 28,23.5 28,8.5 56,8.5 "/>
      <path d="M94.8,65C94.8,65,94.8,65,94.8,65c-1.4,0-2.8-0.6-3.8-1.7c-1,1.1-2.4,1.7-3.8,1.7c-1.4,0-2.8-0.6-3.8-1.7
                                                                                                                                                                                          c-1,1.1-2.4,1.7-3.8,1.7c-1.4,0-2.8-0.6-3.8-1.7c-1,1.1-2.4,1.7-3.8,1.7h0c-1.4,0-2.8-0.6-3.8-1.7c-1,1.1-2.4,1.7-3.8,1.7
                                                                                                                                                                                          c-1.4,0-2.8-0.6-3.8-1.7c-1,1.1-2.4,1.7-3.8,1.7s-2.8-0.6-3.8-1.7c-1,1.1-2.4,1.7-3.8,1.7c-1.5,0-2.9-0.7-4-1.9L45,62.9l0.4-0.3
                                                                                                                                                                                          l0.2,0.2c1,1.1,2.3,1.8,3.6,1.8c1.4,0,2.7-0.6,3.6-1.8l0.2-0.2l0.2,0.2c1,1.1,2.3,1.8,3.6,1.8s2.7-0.6,3.6-1.8l0.2-0.2l0.2,0.2
                                                                                                                                                                                          c1,1.1,2.3,1.8,3.6,1.8c1.4,0,2.7-0.6,3.6-1.8l0.2-0.2l0.2,0.2c1,1.1,2.3,1.8,3.6,1.8h0c1.4,0,2.7-0.6,3.6-1.8l0.2-0.2l0.2,0.2
                                                                                                                                                                                          c1,1.1,2.3,1.8,3.6,1.8c1.4,0,2.7-0.6,3.6-1.8l0.2-0.2l0.2,0.2c1,1.1,2.3,1.8,3.6,1.8c1.4,0,2.7-0.6,3.6-1.8l0.2-0.2l0.2,0.2
                                                                                                                                                                                          c1,1.1,2.3,1.8,3.6,1.8h0c1.4,0,2.7-0.6,3.6-1.8l0.2-0.2l0.4,0.3l-0.2,0.2C97.8,64.3,96.4,65,94.8,65z"/>
      <rect x="61" y="44.5" width="8" height="0.5"/>
      <rect x="78" y="44.5" width="8" height="0.5"/>
      <rect x="61" y="40.5" width="8" height="0.5"/>
      <rect x="69.5" y="40.5" width="8" height="0.5"/>
      <rect x="78" y="40.5" width="8" height="0.5"/>
      <rect x="61" y="49" width="8" height="0.5"/>
      <polygon points="77,53.5 77,45.5 70,45.5 70,53.5 69,53.5 69,44.5 78,44.5 78,53.5 "/>
      <rect x="78" y="49" width="8" height="0.5"/>
      <polygon points="61,53.5 44,53.5 44,47.5 29,47.5 29,53.5 0,53.5 0,36.5 1,36.5 1,52.5 28,52.5 28,46.5 45,46.5 45,52.5 60,52.5
                                                                                                                                                                                            60,37.5 61,37.5 "/>
      <rect x="78" y="53" width="8" height="0.5"/>
      <rect x="78" y="37" width="8" height="0.5"/>
      <rect x="60" y="37" width="18" height="0.5"/>
      <rect x="77.5" y="37.5" width="0.5" height="7"/>
      <rect x="69" y="37.5" width="0.5" height="7"/>
      <g>
        <polygon points="96,26.5 94.8,26.5 90.8,33.5 86.8,26.5 84.5,26.5 80.5,33.5 76.5,26.5 74.2,26.5 70.2,33.5 66.1,26.5 63.8,26.5
                                                                                                                                                                                                59.8,33.5 55.8,26.5 53.5,26.5 49.5,33.5 45.5,26.5 43.2,26.5 39.2,33.5 35.2,26.5 32.9,26.5 28.8,33.5 24.8,26.5 22.5,26.5
                                                                                                                                                                                                18.5,33.5 14.5,26.5 12.2,26.5 8.2,33.5 4.2,26.5 3,26.5 7,33.5 9.3,33.5 13.3,26.5 17.4,33.5 19.6,33.5 23.7,26.5 27.7,33.5
                                                                                                                                                                                                30,33.5 34,26.5 38,33.5 40.3,33.5 44.3,26.5 48.4,33.5 50.6,33.5 54.7,26.5 58.7,33.5 61,33.5 65,26.5 69,33.5 71.3,33.5
                                                                                                                                                                                                75.3,26.5 79.4,33.5 81.6,33.5 85.7,26.5 89.7,33.5 92,33.5 	"/>
      </g>
      <g>
        <g>
          <path d="M98,26.5v7H1v-7H98 M99,25.5H0v9h99V25.5L99,25.5z"/>
        </g>
      </g>
    </symbol>

    <symbol id="M-search" viewBox="0 0 80 80">
      <path d="M56.8,30.9v0.8c0,12-8.8,25.6-24.8,25.6c-4.8,0-9.6-1.6-13.6-4c0.8,0,1.6,0,2.4,0c4,0,8-1.6,11.2-4c-4,0-7.2-2.4-8-6.4
                                                                                                                                                                                                c0.8,0,0.8,0,1.6,0s1.6,0,2.4,0c-4.8-0.8-8-4-8-8l0,0c1.6,0,3.2,0.8,4,0.8c-2.4-1.6-3.2-4-3.2-7.2c0-1.6,0.8-3.2,0.8-4.8
                                                                                                                                                                                                c4,5.6,11.2,8.8,18.4,9.6c0-0.8,0-1.6,0-1.6c0-4.8,4-8.8,8.8-8.8c2.4,0,4.8,0.8,6.4,2.4c1.6,0,4-0.8,5.6-2.4c-1.6,2.4-2.4,4-4.8,4.8
                                                                                                                                                                                                c1.6,0,3.2-0.8,4.8-1.6C60,28.5,58.4,30.1,56.8,30.9z"/>
      <g>
        <path d="M40,1.7c21.1,0,38.3,17.2,38.3,38.3S61.1,78.3,40,78.3S1.7,61.1,1.7,40S18.9,1.7,40,1.7 M40,0C17.9,0,0,17.9,0,40
                                                                                                                                                                                                    s17.9,40,40,40s40-17.9,40-40S62.1,0,40,0L40,0z"/>
      </g>
    </symbol>

    <symbol id="D-circleoutline" viewBox="1450.667 754.825 100 100">
      <path d="M1500.667,754.825c-27.614,0-50,22.386-50,50s22.386,50,50,50c27.614,0,49.999-22.386,49.999-50
                                                                                                                                                                                                    S1528.281,754.825,1500.667,754.825z M1500.667,851.487c-25.77,0-46.662-20.892-46.662-46.662s20.892-46.662,46.662-46.662
                                                                                                                                                                                                    c25.771,0,46.661,20.892,46.661,46.662S1526.438,851.487,1500.667,851.487z"/>
    </symbol>

    <symbol id="D-circlefilled" viewBox="1450.667 754.825 100 100">
      <circle cx="1500.668" cy="804.82" r="50.005"/>
    </symbol>

    <symbol id="D-arrowdown-thin" viewBox="750 350 1500 800">
      <polygon points="750,385 785,350 1500,1080 2215,350 2250,385 1500,1150 "/>
    </symbol>

    <symbol id="D-arrowup-thin" viewBox="750 350 1500 800">
      <polygon points="2250,1115 2215,1150 1500,420 785,1150 750,1115 1500,350 "/>
    </symbol>

    <symbol id="D-beating-crown" viewBox="0 0 41 41">
      <g class="heart-beat">
        <path d="M20.2,9.5C19,9.7,18,10.7,18,12c0,1.4,1.1,2.5,2.5,2.5S23,13.4,23,12c0-1.3-1-2.3-2.3-2.5V7.8H23V7.2h-2.2V5h-0.5v2.2H18
                v0.5h2.2V9.5z M22,12c0,0.8-0.7,1.5-1.5,1.5S19,12.8,19,12s0.7-1.5,1.5-1.5S22,11.2,22,12z"/>
        <path d="M10,23v1c2,0,2.2,0.5,3.4,2.4c0.5,0.8,0.8,1.2,1,1.6h1.2c-0.3-0.4-0.9-1.3-1.7-2.6C12.6,23.3,12,23,10,23z"/>
        <path d="M10.1,25.4C8.7,23.3,8,23,6,23v1c2,0,2.1,0.3,3.5,2.2c0.6,0.8,1,1.4,1.3,1.8H12C11.7,27.6,11,26.7,10.1,25.4z"/>
        <path d="M27.1,25.4c-0.8,1.2-1.4,2.2-1.7,2.6h1.2c0.3-0.4,0.5-0.8,1-1.6C28.8,24.5,29,24,31,24v-1C29,23,28.4,23.3,27.1,25.4z"/>
        <path d="M30.9,25.4C30,26.7,29.3,27.6,29,28h1.2c0.3-0.4,0.7-1,1.3-1.8C32.9,24.3,33,24,35,24v-1C33,23,32.3,23.3,30.9,25.4z"/>
        <rect x="11" y="29.8" width="19" height="0.5"/>
        <rect x="11" y="32" width="19" height="1"/>
        <path d="M7.7,21.9c-0.3-0.7-0.7-2-0.7-3.1c0-1.1,0.4-2.1,1.1-2.8c0.7-0.7,1.6-1,2.6-1c0.4,0,0.7,0.1,1,0.2c-1,0.9-1.7,2.3-1.7,4.3
                  c0,0.7,0.2,1.7,0.4,2.3c0.4,0,0.8,0,1.1,0.1c-0.3-0.7-0.5-1.7-0.5-2.4c0-2.7,1.5-4.5,3.8-4.5c1.8,0,2.8,1.1,3.8,2.2
                  c0.3,0.3,0.6,0.7,1,1c-0.3,0.1-0.6,0.2-1,0.2c-1.7,0-2.7-1-3.8-2.1c-0.1-0.1-0.1-0.1-0.2-0.2c-0.6,0-0.9,0.3-1,0.3c0,0,0,0,0,0
                  c0,0,0,0,0,0c0.2,0.2,0.4,0.4,0.6,0.5c1.1,1.1,2.4,2.4,4.5,2.4c0.5,0,1-0.1,1.5-0.3v2.7l0.5,0.4l0.5-0.4v-2.7
                  c0.5,0.2,1,0.3,1.5,0.3c2.1,0,3.4-1.3,4.5-2.4c0.2-0.2,0.4-0.4,0.6-0.5c0,0,0,0,0,0c-0.1-0.1-0.5-0.3-1-0.3
                  c-0.1,0.1-0.1,0.1-0.2,0.2c-1.1,1.1-2.1,2.1-3.8,2.1c-0.4,0-0.7-0.1-1-0.2c0.3-0.3,0.7-0.7,1-1c1-1.1,2-2.2,3.8-2.2
                  c2.3,0,3.8,1.8,3.8,4.5c0,0.7-0.4,1.8-0.6,2.5c0.3,0,0.7-0.1,1-0.1h0.1c0.2-0.7,0.5-1.7,0.5-2.4c0-2-0.7-3.4-1.7-4.3
                  c0.3-0.1,0.6-0.2,1-0.2c1,0,1.9,0.4,2.6,1c0.7,0.7,1.1,1.7,1.1,2.8c0,1.1-0.5,2.5-0.9,3.2c0.3,0,0.7-0.1,1.1-0.1h0
                  c0.3-0.8,0.7-2.1,0.7-3.1c0-1.4-0.5-2.6-1.4-3.5c-0.8-0.8-2-1.3-3.3-1.3c-0.8,0-1.4,0.2-2,0.5C27.7,14.2,27,14,26.3,14
                  c0,0,0,0-0.1,0c-2.2,0-3.4,1.3-4.5,2.5c-0.4,0.4-0.8,0.8-1.2,1.2c-0.4-0.3-0.8-0.7-1.2-1.2C18.2,15.3,17,14,14.8,14c0,0,0,0-0.1,0
                  c-0.7,0-1.4,0.2-2.1,0.5c-0.6-0.3-1.2-0.5-2-0.5c-1.3,0-2.5,0.5-3.3,1.3C6.5,16.2,6,17.4,6,18.8c0,1,0.3,2.3,0.6,3
                  C7,21.8,7.4,21.9,7.7,21.9z"/>
        <path d="M23.3,28c0.6-0.8,1.2-1.8,1.2-2.7c0-1.3-0.9-2.3-2.2-2.3c-0.9,0-1.5,0.6-1.7,0.9c-0.3-0.4-0.9-0.9-1.7-0.9
                    c-1.3,0-2.2,0.9-2.2,2.3c0,0.9,0.6,1.9,1.2,2.7h1.2c-0.6-0.8-1.4-1.9-1.4-2.7c0-0.8,0.5-1.3,1.2-1.3c0.7,0,1.1,0.7,1.1,0.7L20,25
                    H21l0.1-0.3c0,0,0.4-0.7,1.1-0.7c0.7,0,1.2,0.5,1.2,1.3c0,0.8-0.8,1.9-1.4,2.7H23.3z"/>
        <path d="M20.5,0C9.2,0,0,9.2,0,20.5S9.2,41,20.5,41S41,31.8,41,20.5S31.8,0,20.5,0z M20.5,40C9.7,40,1,31.3,1,20.5S9.7,1,20.5,1
                      S40,9.7,40,20.5S31.3,40,20.5,40z"/>
        <polygon points="13.5,16.4 13.5,16.4 13.5,16.4 	"/>
      </g>
    </symbol>

    <symbol id="tooltip-question" viewBox="0 0 83.1 83.1">
      <path d="M0,41.6C0,18.6,18.6,0,41.6,0s41.6,18.6,41.6,41.6S64.5,83.1,41.6,83.1S0,64.5,0,41.6z
	      M78.9,41.6c0-20.7-16.5-37.7-37.4-37.7S4.3,20.8,4.3,41.6s16.4,37.6,37.2,37.6S78.9,62.3,78.9,41.6z"/>
      <path class="st0" d="M36.6,51.6c0-15.7,10.6-13.8,10.6-21.5c0-3.2-2.3-5.6-6-5.6c-3.4,0-5.6,2.4-6.3,5.5l-8.3-2.8
	      C28,20.9,33,16.6,41.3,16.6c8.8,0,15,5.4,15,13.6c0,12.3-11.8,9.7-11.8,21.4v0.7h-8V51.6z M40.5,54.7c3.2,0,5.4,2.2,5.4,5.4
	      c0,3.2-2.2,5.3-5.4,5.3c-3.2,0-5.3-2.1-5.3-5.3C35.2,56.9,37.3,54.7,40.5,54.7z"/>
    </symbol>


    <symbol id="kiosk-arrow" viewBox="0 0 44.08 46.58">
      <polygon class="st0" points="0.79,23.29 43.29,45.79 43.29,0.79 "/>
    </symbol>

    <symbol id="kiosk-home" viewBox="0 0 20 22.5">
      <path class="st0" d="M0.893,9.63v11.977h18.214V9.63C16.072,6.718,13.036,3.805,10,0.893C6.964,3.805,3.929,6.718,0.893,9.63z"/>
    </symbol>

    <symbol id="kiosk-exclamation" viewBox="0 0 230.667 203.5">
      <style type="text/css">
        .st0{clip-path:url(#SVGID_2_);}
        .st1{fill:#E41B49;}
        .st2{clip-path:url(#SVGID_2_);fill:none;stroke:#E41B49;stroke-width:4;}
      </style>
      <g>
        <defs>
          <rect id="SVGID_1_" x="-7.333" y="-4.508" />
        </defs>

        <g class="st0">
          <path class="st1" d="M108.479,148.848c0-4.146,2.879-7.14,6.794-7.14c4.146,0,6.794,2.994,6.794,7.14
			c0,4.03-2.649,7.14-6.794,7.14C111.243,155.987,108.479,152.878,108.479,148.848z M111.358,132.38l-1.612-55.275h11.055
			l-1.612,55.275H111.358z"/>
        </g>
        <path class="st2" d="M121.22,9.039c-0.739-1.266-3.21-4.555-5.741-4.547c-2.128,0.008-3.999,2.469-5.193,4.539l-105.082,182
		c-0.725,1.266-2.334,5.055-1.063,7.242c1.068,1.844,4.139,2.227,6.528,2.227h210.166c1.461-0.008,5.541-0.508,6.801-2.703
		c1.06-1.844-0.141-4.696-1.336-6.766C191.273,130.367,156.248,69.703,121.22,9.039z"/>
      </g>
    </symbol>

    <symbol id="kiosk-printer" viewBox="0 0 116.398 124.54">
      <g>
        <defs>
          <rect style="stroke-width:1px;" id="SVGID_1_" width="116.398" height="124.54"/>
        </defs>
        <polyline style="fill: transparent; stroke-width:3px;" points="90.735,91.465 114.398,91.465 114.398,32.308 2,32.308 2,91.465 27.634,91.465 	"/>
        <path style="fill: transparent;" d="M35.473,108.382h35.134 M35.473,99.588h47.785 M35.473,90.795h47.785 M35.473,82.001h47.785 M91.505,123.54
		H27.457V72.863h64.048V123.54z M91.466,32.859h-63.97V1.001h63.97V32.859z"/>
      </g>
      <line style="stroke-width:3px;" x1="20.733" y1="72.962" x2="97.637" y2="72.962"/>
    </symbol>

    <symbol id="kiosk-creditcard" viewBox="0 0 281.695 200">
      <g>
        <rect style="fill:#E4003C;" x="1.37" y="40" class="st0" width="278.546" height="39.996"/>
        <g>
          <defs>
            <rect width="281.695" height="200"/>
          </defs>
          <path style="fill:transparent; stroke:#E4003C; stroke-width:4px;" d="M18.27,2C17.606,2.004,2,2.262,2,18.266v163.468C2.003,182.395,2.261,198,18.265,198h245.164
			c0.66-0.004,16.266-0.262,16.266-16.266V18.266C279.692,17.605,279.434,2,263.429,2H18.265H18.27z"/>
        </g>
        <line style="fill:transparent; stroke:#E4003C; stroke-width:2px;" x1="34.909" y1="148.199" x2="80.572" y2="148.199"/>
        <line style="fill:transparent; stroke:#E4003C; stroke-width:2px;" x1="34.909" y1="159" x2="126.236" y2="159"/>
      </g>
    </symbol>

    <symbol id="kiosk-downarrow" viewBox="0 0 77.519 122">
      <g>
        <defs>
          <rect id="SVGID_1_" width="77.519" height="122"/>
        </defs>
        <polyline class="st0" points="75.519,84 38.759,120 2,84 	"/>
        <line class="st1" x1="38.759" y1="119.289" x2="38.759" y2="2"/>
      </g>
    </symbol>

  </defs>
</svg>